<svg xmlns="http://www.w3.org/2000/svg" width="533.549" height="508.485" viewBox="0 0 533.549 508.485">
  <g id="OBJECTS" transform="translate(-59.115 -115.429)">
    <g id="Group_124" data-name="Group 124" transform="translate(59.115 115.428)">
      <path id="Path_14" data-name="Path 14" d="M545.75,361.779a245.509,245.509,0,0,0-13.189-39.02,334.726,334.726,0,0,0-16.3-32.656c-5.212-9.179-10.42-17.537-15.464-25.144-.073-.216-.146-.432-.217-.639-1.209-3.548-2.353-7.091-3.482-10.65-5.389-17.014-28.952-77.639-95.492-96.787-1.892-1.106-3.842-2.2-5.867-3.265a138,138,0,0,0-29.761-11.651c-1.385-.409-2.806-.719-4.241-1.032s-2.876-.657-4.342-.943c-2.949-.462-5.931-1.1-9.009-1.382a138.152,138.152,0,0,0-19.1-.993,153.81,153.81,0,0,0-40.977,6.821,176.136,176.136,0,0,0-20.928,8.026c-3.453,1.633-6.991,3.216-10.37,5.152l-5.169,2.806c-1.725.952-3.375,2.035-5.079,3.055A272.813,272.813,0,0,0,207.315,193.1a365.577,365.577,0,0,0-28.338,28.332c-39.56,27.875-67.874,55.985-72.58,67.413-2.44,5.928.076,14.99,6.435,26.232-1.912,3.5-3.8,7.034-5.634,10.625a282.872,282.872,0,0,0-12.615,27.983L93.2,357.4l-1.267,3.845-.62,1.937-.553,2.035c-.359,1.37-.757,2.669-1.019,4.209a33.585,33.585,0,0,0-.727,4.741c-.064.909-.156,1.707-.166,2.7q.026.844.087,1.69c.054.551.144,1.077.227,1.615a27.358,27.358,0,0,0,4.318,10.259,63.4,63.4,0,0,0,12.235,13.048,143,143,0,0,0,13.342,9.77A296.686,296.686,0,0,0,147.2,429.292a636.639,636.639,0,0,0,59.667,26.024c26.752,10.176,53.469,18.968,79.962,26.572,61.01,44.156,120.233,75.924,146.394,68.2,32.157-9.5,53.914-27.252,68.179-49.487.467-.316.934-.637,1.39-1l.846-.656.66-.57c14.291-11.886,26.123-26.293,33.924-42.141a121,121,0,0,0,12.329-48.858A165.715,165.715,0,0,0,545.75,361.779ZM213.376,438.3c-20.023-7.673-39.571-15.876-58.073-25.1a287.274,287.274,0,0,1-26.563-14.85,127.547,127.547,0,0,1-11.791-8.441,47.533,47.533,0,0,1-8.957-9.147,10.762,10.762,0,0,1-1.762-3.658c-.009-.09-.041-.187-.054-.271a.693.693,0,0,0-.016-.21l.09-1.093a18.137,18.137,0,0,1,.4-2.772,31.693,31.693,0,0,1,.729-3.169l.411-1.629.513-1.669,1.046-3.343,1.2-3.366A274.094,274.094,0,0,1,122,333.076c.377-.767.764-1.525,1.146-2.289,24.356,33.253,71.008,78.2,121.5,118.845Q229.015,444.239,213.376,438.3ZM362.983,151.1c-43.752-1.17-91.481,16.154-133.823,39.112a247.279,247.279,0,0,1,23.38-17.6,177.95,177.95,0,0,1,38.609-19.516,147.6,147.6,0,0,1,38.447-8.071,132.909,132.909,0,0,1,18.135.133c2.94.13,5.8.613,8.633.92,1.409.207,2.8.476,4.181.707s2.758.463,4.1.792a135.863,135.863,0,0,1,18.21,5.254A163.958,163.958,0,0,0,362.983,151.1Zm176.786,255.61a110.445,110.445,0,0,1-12.612,43.822,107.508,107.508,0,0,1-10.107,15.48c18.875-62.484,1.582-140.92-10.065-181.231,1.4,2.62,2.8,5.291,4.192,8.044a339.294,339.294,0,0,1,14.514,32.713,242.9,242.9,0,0,1,11.163,38.2A158.071,158.071,0,0,1,539.769,406.708Z" transform="translate(-46.363 -74.22)" fill="#19305a"/>
      <g id="Group_123" data-name="Group 123">
        <g id="Group_11" data-name="Group 11" transform="translate(65.284)">
          <g id="Group_3" data-name="Group 3" transform="translate(98.769 71.24)">
            <path id="Path_15" data-name="Path 15" d="M180.778,160.108c-1.626,1-3.252,1.307-3.631.689s.632-1.926,2.256-2.925,3.251-1.309,3.631-.69S182.4,159.109,180.778,160.108Z" transform="translate(-172.588 -137.208)" fill="#404851"/>
            <path id="Path_16" data-name="Path 16" d="M177.644,146.352c-1.627,1-3.252,1.307-3.632.689s.632-1.927,2.258-2.926,3.251-1.307,3.629-.689S179.268,145.353,177.644,146.352Z" transform="translate(-173.932 -143.107)" fill="#404851"/>
          </g>
          <g id="Group_4" data-name="Group 4" transform="translate(51.632 6.864)">
            <path id="Path_17" data-name="Path 17" d="M143.278,99.058c-1.625,1-2.635,2.309-2.256,2.928s2,.309,3.631-.69,2.636-2.309,2.256-2.928S144.9,98.06,143.278,99.058Z" transform="translate(-140.942 -98.051)" fill="#404851"/>
            <path id="Path_18" data-name="Path 18" d="M154.089,108c-1.625,1-2.636,2.31-2.256,2.928s2,.309,3.631-.689,2.636-2.31,2.256-2.926S155.715,107.007,154.089,108Z" transform="translate(-136.307 -94.214)" fill="#404851"/>
          </g>
          <g id="Group_5" data-name="Group 5" transform="translate(0 1.063)">
            <path id="Path_19" data-name="Path 19" d="M209.187,207.248l-7.478,4.594-15.591-27.883-.642-1.152-8.822-15.777-2.889-5.167c-15.035,8.016-29.914,15.241-40.065,19.16l.029,17.774-8.229,5.055-4.605-20.362-16.088-13.307,8.233-5.057,15.84,8.057c8.081-7.287,21.254-17.292,35.2-27.09L144.2,116.555l-1.22-1.819-2.213-3.285-1.049-1.56-7.6-11.3,7.476-4.6,9.167,7.31,2.636,2.106,4.621-2.839a2.907,2.907,0,0,1,3.042,4.955l-2.822,1.74,3.416,2.72,7.567,6.035,4.3-2.638a2.91,2.91,0,1,1,3.046,4.959l-2.506,1.539,14.152,11.286c3.306-2.135,6.528-4.166,9.59-6.045,31.04-19.08,37.528-10.715,37.528-10.715s4.531,9.562-26.515,28.643c-3.062,1.88-6.328,3.828-9.727,5.812l1.256,6.047.107.524,2.315,11.162,2.5-1.545a2.91,2.91,0,1,1,3.046,4.959l-4.3,2.639.8,3.842,2.055,9.915,2.826-1.736a2.907,2.907,0,1,1,3.043,4.954l-4.614,2.84Z" transform="translate(-104.806 -93.991)" fill="#fff8e1"/>
          </g>
          <path id="Path_20" data-name="Path 20" d="M186.2,110.611a4.24,4.24,0,0,0-3.482,1,9.014,9.014,0,0,1,3.582,1.827,5.737,5.737,0,0,1,2,3.256,9.026,9.026,0,0,1,.011,4.022,4.25,4.25,0,0,0,2.463-2.658A5.691,5.691,0,0,0,186.2,110.611Z" transform="translate(-71.396 -85.821)" fill="#282f39"/>
          <path id="Path_21" data-name="Path 21" d="M126.38,154.794c-4.617,2.836-8.637,4.684-8.98,4.126s3.123-3.309,7.74-6.145,8.637-4.682,8.98-4.125S131,151.959,126.38,154.794Z" transform="translate(-99.416 -69.532)" fill="#c5ced7"/>
          <g id="Group_6" data-name="Group 6" transform="translate(97.037 64.426)">
            <rect id="Rectangle_1" data-name="Rectangle 1" width="19.413" height="0.899" transform="translate(0.766 0) rotate(58.442)" fill="#c5ced7"/>
            <rect id="Rectangle_2" data-name="Rectangle 2" width="19.414" height="0.899" transform="matrix(0.523, 0.852, -0.852, 0.523, 5.225, 19.801)" fill="#c5ced7"/>
          </g>
          <g id="Group_7" data-name="Group 7" transform="translate(49.761)">
            <rect id="Rectangle_3" data-name="Rectangle 3" width="19.415" height="0.899" transform="translate(25.806 29.944) rotate(-121.558)" fill="#c5ced7"/>
            <rect id="Rectangle_4" data-name="Rectangle 4" width="19.413" height="0.899" transform="matrix(-0.523, -0.852, 0.852, -0.523, 10.16, 17.012)" fill="#c5ced7"/>
          </g>
          <path id="Path_22" data-name="Path 22" d="M177.645,138.441l-21.687,12.121-2.889-5.167c4.465-2.353,23.32-13,23.32-13Z" transform="translate(-84.11 -76.46)" fill="#c5ced7"/>
          <path id="Path_23" data-name="Path 23" d="M148.2,106l-15.449,6.571-1.221-1.819,13.254-7.473Z" transform="translate(-93.348 -88.945)" fill="#c5ced7"/>
          <path id="Path_24" data-name="Path 24" d="M178.6,152.885l-16.7,7.466-.642-1.15,16.54-10.159Z" transform="translate(-80.595 -69.321)" fill="#c5ced7"/>
          <g id="Group_10" data-name="Group 10" transform="translate(46.719 30.812)">
            <g id="Group_8" data-name="Group 8">
              <path id="Path_25" data-name="Path 25" d="M137.625,149.155a.831.831,0,0,1,.2-1.09c.9-.69,1.945-1.479,3.115-2.34a.829.829,0,0,1,.984,1.335c-1.16.856-2.2,1.636-3.086,2.319a.829.829,0,0,1-1.163-.15C137.658,149.2,137.643,149.18,137.625,149.155Zm6.237-4.612a.827.827,0,0,1,.223-1.106c1.007-.726,2.065-1.479,3.162-2.256a.829.829,0,0,1,.957,1.353c-1.092.773-2.147,1.526-3.151,2.249a.829.829,0,0,1-1.157-.189Zm6.328-4.485a.828.828,0,0,1,.23-1.112q1.562-1.093,3.182-2.22a.829.829,0,0,1,1.154.207.819.819,0,0,1-.206,1.154q-1.618,1.121-3.179,2.215a.826.826,0,0,1-1.154-.2A.418.418,0,0,1,150.19,140.058Zm6.368-4.424a.829.829,0,0,1,.234-1.116q1.595-1.1,3.2-2.2a.829.829,0,0,1,.937,1.367q-1.6,1.1-3.195,2.2a.83.83,0,0,1-1.153-.211Zm6.394-4.386a.828.828,0,0,1,.239-1.119q1.618-1.1,3.206-2.183a.829.829,0,0,1,.932,1.372q-1.582,1.074-3.2,2.182a.828.828,0,0,1-1.152-.217C162.967,131.271,162.958,131.259,162.953,131.248Zm6.413-4.358a.829.829,0,0,1,.243-1.12l3.213-2.172a.829.829,0,1,1,.929,1.375l-3.213,2.17a.828.828,0,0,1-1.15-.221Zm6.43-4.338a.832.832,0,0,1,.246-1.123l3.221-2.16a.829.829,0,1,1,.923,1.377l-3.219,2.16a.831.831,0,0,1-1.152-.226Zm6.447-4.318a.829.829,0,0,1,.246-1.123c2.042-1.363,3.245-2.162,3.245-2.162a.829.829,0,0,1,.917,1.382s-1.2.8-3.242,2.159a.827.827,0,0,1-1.149-.229Z" transform="translate(-137.504 -114.811)" fill="#c5ced7"/>
            </g>
            <g id="Group_9" data-name="Group 9" transform="translate(5.882 14.931)">
              <path id="Path_26" data-name="Path 26" d="M141.7,154.175a.829.829,0,0,1,.393-1.1c1.01-.483,2.176-1.056,3.463-1.7a.829.829,0,1,1,.746,1.48c-1.3.654-2.475,1.233-3.5,1.72a.83.83,0,0,1-1.063-.313C141.73,154.227,141.714,154.2,141.7,154.175Zm6.947-3.452a.828.828,0,0,1,.354-1.117c1.1-.57,2.246-1.169,3.432-1.795a.829.829,0,1,1,.773,1.466c-1.189.627-2.34,1.23-3.442,1.8a.828.828,0,0,1-1.087-.3C148.668,150.758,148.657,150.74,148.648,150.723Zm6.865-3.606a.828.828,0,0,1,.341-1.122q1.678-.9,3.413-1.833a.819.819,0,0,1,1.123.337.829.829,0,0,1-.336,1.123q-1.736.934-3.421,1.835a.826.826,0,0,1-1.1-.3C155.531,147.146,155.522,147.13,155.514,147.116Zm6.828-3.675a.829.829,0,0,1,.333-1.124c1.132-.616,2.27-1.234,3.4-1.857a.83.83,0,0,1,.8,1.456c-1.136.622-2.276,1.243-3.408,1.859a.831.831,0,0,1-1.1-.294Zm6.805-3.716a.828.828,0,0,1,.327-1.126c1.143-.629,2.278-1.254,3.393-1.87a.829.829,0,0,1,.8,1.45c-1.116.617-2.252,1.242-3.4,1.873a.829.829,0,0,1-1.106-.292Zm6.788-3.748a.829.829,0,0,1,.323-1.127c1.163-.646,2.3-1.276,3.388-1.885a.83.83,0,0,1,.807,1.45q-1.64.913-3.392,1.883a.827.827,0,0,1-1.107-.29Zm6.778-3.771a.828.828,0,0,1,.319-1.129l3.382-1.895a.829.829,0,1,1,.812,1.446l-3.383,1.9a.83.83,0,0,1-1.112-.289Zm6.765-3.795a.831.831,0,0,1,.316-1.13c2.136-1.2,3.391-1.915,3.391-1.915A.83.83,0,1,1,194,126.81s-1.257.712-3.393,1.917a.831.831,0,0,1-1.114-.289Z" transform="translate(-141.621 -125.261)" fill="#c5ced7"/>
            </g>
          </g>
        </g>
        <g id="Group_12" data-name="Group 12" transform="translate(7.959 95.076)">
          <path id="Path_27" data-name="Path 27" d="M231.319,385.525c-.047,0-.1-.007-.144-.014q-4.381-.673-8.76-1.422a1.473,1.473,0,1,1,.5-2.9q4.353.746,8.709,1.412a1.474,1.474,0,0,1-.3,2.929Zm-17.436-3a1.416,1.416,0,0,1-.2-.024c-2.92-.562-5.848-1.16-8.7-1.777a1.475,1.475,0,0,1,.623-2.883c2.83.614,5.735,1.206,8.634,1.766a1.474,1.474,0,0,1-.356,2.919Zm-17.289-3.754a1.488,1.488,0,0,1-.271-.04c-2.908-.709-5.8-1.455-8.6-2.222a1.475,1.475,0,0,1,.779-2.845c2.775.759,5.642,1.5,8.524,2.2a1.474,1.474,0,0,1-.427,2.9Zm-17.057-4.682a1.414,1.414,0,0,1-.356-.063c-2.845-.876-5.69-1.8-8.456-2.758a1.474,1.474,0,1,1,.964-2.786c2.733.944,5.547,1.862,8.359,2.728a1.473,1.473,0,0,1-.512,2.879ZM162.826,368.3a1.485,1.485,0,0,1-.456-.1c-2.793-1.084-5.564-2.222-8.234-3.383a1.474,1.474,0,1,1,1.177-2.7c2.632,1.144,5.365,2.268,8.124,3.338a1.475,1.475,0,0,1-.612,2.848Zm-16.213-7.064a1.416,1.416,0,0,1-.566-.147c-2.685-1.306-5.348-2.68-7.921-4.086a1.474,1.474,0,0,1,1.415-2.588c2.532,1.385,5.155,2.738,7.8,4.024a1.474,1.474,0,0,1-.724,2.8Zm-15.517-8.48a1.492,1.492,0,0,1-.69-.216q-2.353-1.44-4.667-2.956-1.421-.932-2.823-1.9a1.474,1.474,0,1,1,1.673-2.426q1.374.947,2.766,1.857c1.517,1,3.048,1.962,4.591,2.908a1.475,1.475,0,0,1-.85,2.73Zm-14.561-10.04a1.439,1.439,0,0,1-.823-.309c-2.349-1.825-4.665-3.739-6.887-5.688a1.475,1.475,0,0,1,1.943-2.219c2.179,1.913,4.452,3.791,6.753,5.58a1.474,1.474,0,0,1-.986,2.636ZM103.241,331.06a1.455,1.455,0,0,1-.956-.424c-2.122-2.093-4.2-4.272-6.161-6.468a1.474,1.474,0,1,1,2.2-1.966c1.927,2.152,3.958,4.285,6.037,6.338a1.474,1.474,0,0,1-1.116,2.52ZM91.454,317.882a1.464,1.464,0,0,1-1.079-.559c-1.855-2.353-3.638-4.777-5.3-7.2a1.474,1.474,0,1,1,2.43-1.669c1.626,2.368,3.371,4.737,5.185,7.041a1.476,1.476,0,0,1-.247,2.07A1.46,1.46,0,0,1,91.454,317.882Zm-9.992-14.577a1.473,1.473,0,0,1-1.192-.72c-1.52-2.576-2.955-5.222-4.266-7.87a1.475,1.475,0,0,1,2.643-1.309c1.279,2.583,2.679,5.165,4.162,7.678a1.475,1.475,0,0,1-.522,2.019A1.447,1.447,0,0,1,81.462,303.305Zm-7.834-15.837a1.466,1.466,0,0,1-1.289-.922c-1.122-2.778-2.138-5.617-3.018-8.434a1.475,1.475,0,0,1,2.815-.88c.857,2.743,1.845,5.505,2.938,8.211a1.476,1.476,0,0,1-1.446,2.025ZM68.372,270.6a1.475,1.475,0,0,1-1.36-1.153c-.649-2.923-1.172-5.9-1.556-8.837a1.474,1.474,0,1,1,2.923-.381c.373,2.855.882,5.741,1.51,8.579a1.474,1.474,0,0,1-1.12,1.759A1.449,1.449,0,0,1,68.372,270.6ZM66.1,253.084a1.475,1.475,0,0,1-1.393-1.432c-.049-1.713-.026-3.449.067-5.165.069-1.287.177-2.59.324-3.872a1.455,1.455,0,0,1,1.632-1.3,1.475,1.475,0,0,1,1.3,1.632c-.14,1.223-.244,2.466-.31,3.7-.087,1.636-.109,3.292-.064,4.925a1.474,1.474,0,0,1-1.433,1.515Zm1.966-17.516a1.614,1.614,0,0,1-.281-.043,1.475,1.475,0,0,1-1.073-1.787,75.911,75.911,0,0,1,2.712-8.6,1.474,1.474,0,0,1,2.755,1.049,73.266,73.266,0,0,0-2.606,8.261A1.473,1.473,0,0,1,68.07,235.568Zm6.24-16.516a1.446,1.446,0,0,1-.586-.157,1.472,1.472,0,0,1-.65-1.98c1.313-2.6,2.8-5.227,4.416-7.814a1.475,1.475,0,0,1,2.5,1.563c-1.573,2.512-3.015,5.064-4.289,7.581A1.469,1.469,0,0,1,74.309,219.052Zm9.337-15a1.459,1.459,0,0,1-.8-.287,1.476,1.476,0,0,1-.309-2.062c1.733-2.339,3.609-4.7,5.575-7.005a1.475,1.475,0,1,1,2.245,1.913c-1.923,2.259-3.758,4.562-5.448,6.847A1.475,1.475,0,0,1,83.647,204.05Zm11.459-13.481a1.475,1.475,0,0,1-.983-2.495c2.023-2.1,4.165-4.208,6.365-6.261a1.473,1.473,0,1,1,2.01,2.153c-2.16,2.019-4.264,4.088-6.252,6.151A1.47,1.47,0,0,1,95.106,190.569Zm12.922-12.081a1.474,1.474,0,0,1-.873-2.6c2.238-1.892,4.569-3.775,6.93-5.6a1.475,1.475,0,1,1,1.8,2.335c-2.328,1.795-4.624,3.651-6.828,5.514A1.477,1.477,0,0,1,108.028,178.488Zm14-10.806a1.474,1.474,0,0,1-.772-2.676c2.408-1.7,4.894-3.375,7.388-4.982a1.475,1.475,0,1,1,1.6,2.479c-2.46,1.585-4.912,3.239-7.287,4.912A1.467,1.467,0,0,1,122.029,167.682Z" transform="translate(-64.686 -159.789)" fill="#fff"/>
        </g>
        <g id="Group_122" data-name="Group 122" transform="translate(0 40.783)">
          <path id="Path_28" data-name="Path 28" d="M552.256,439.534S448.33,463.527,320.13,463.527,88,439.534,88,439.534s103.926-23.991,232.126-23.991S552.256,439.534,552.256,439.534Z" transform="translate(-46.726 4.176)" fill="#19305a"/>
          <g id="Group_121" data-name="Group 121">
            <g id="Group_35" data-name="Group 35" transform="translate(275.154 48.856)">
              <g id="Group_28" data-name="Group 28" transform="translate(0 120.646)">
                <path id="Rectangle_5" data-name="Rectangle 5" d="M13.637,0H187.362A13.637,13.637,0,0,1,201,13.637v242.85a13.636,13.636,0,0,1-13.636,13.636H13.636A13.636,13.636,0,0,1,0,256.487V13.637A13.637,13.637,0,0,1,13.637,0Z" transform="translate(6.935)" fill="#d8761d"/>
                <path id="Path_29" data-name="Path 29" d="M297.117,335.986c45.748-35.478,104.212-52.229,160.426-46.259V259.9a19.484,19.484,0,0,0-19.485-19.483H276.029A19.485,19.485,0,0,0,256.543,259.9V389.4C264.419,367.883,278.905,349.887,297.117,335.986Z" transform="translate(-249.608 -240.421)" fill="#e88636"/>
                <g id="Group_13" data-name="Group 13" transform="translate(28.151 270.123)">
                  <rect id="Rectangle_6" data-name="Rectangle 6" width="30.027" height="6.619" fill="#282f39"/>
                  <rect id="Rectangle_7" data-name="Rectangle 7" width="30.027" height="6.619" transform="translate(128.541)" fill="#282f39"/>
                </g>
                <g id="Group_17" data-name="Group 17" transform="translate(28.151 103.843)">
                  <g id="Group_14" data-name="Group 14">
                    <path id="Rectangle_8" data-name="Rectangle 8" d="M11.886,0h134.8a11.885,11.885,0,0,1,11.885,11.885v154.4a0,0,0,0,1,0,0H0a0,0,0,0,1,0,0V11.886A11.886,11.886,0,0,1,11.886,0Z" fill="#8e3d00"/>
                    <path id="Rectangle_9" data-name="Rectangle 9" d="M10.985,0H141.328a10.984,10.984,0,0,1,10.984,10.984V163.129a0,0,0,0,1,0,0H0a0,0,0,0,1,0,0V10.985A10.985,10.985,0,0,1,10.985,0Z" transform="translate(3.128 3.151)" fill="#af550b"/>
                  </g>
                  <g id="Group_16" data-name="Group 16" transform="translate(17.996 26.589)">
                    <path id="Path_30" data-name="Path 30" d="M405.341,334.154H285.209a1.222,1.222,0,0,1-1.222-1.222h0a1.224,1.224,0,0,1,1.222-1.224H405.341a1.225,1.225,0,0,1,1.223,1.224h0A1.223,1.223,0,0,1,405.341,334.154Z" transform="translate(-283.987 -331.708)" fill="#d3d3d3"/>
                    <g id="Group_15" data-name="Group 15" transform="translate(2.533 0.52)">
                      <path id="Path_31" data-name="Path 31" d="M288.985,332.565h-2.776l-.442,5.035a1.837,1.837,0,1,0,3.659,0Zm-.411,2.523h-1.955v-1.8h1.955Z" transform="translate(-285.76 -331.861)" fill="#e5e5e5"/>
                      <path id="Path_32" data-name="Path 32" d="M287.172,334.578h0a.424.424,0,0,1-.424-.424V332.5a.425.425,0,0,1,.424-.426h0a.425.425,0,0,1,.424.426v1.656A.424.424,0,0,1,287.172,334.578Z" transform="translate(-285.336 -332.072)" fill="#bcb7b3"/>
                    </g>
                  </g>
                </g>
                <g id="Group_21" data-name="Group 21" transform="translate(28.151 27.254)">
                  <g id="Group_18" data-name="Group 18">
                    <path id="Rectangle_10" data-name="Rectangle 10" d="M5.336,0h147.9a5.336,5.336,0,0,1,5.336,5.336V34.953a5.337,5.337,0,0,1-5.337,5.337H5.335A5.335,5.335,0,0,1,0,34.955V5.336A5.336,5.336,0,0,1,5.336,0Z" fill="#8e3d00"/>
                    <path id="Rectangle_11" data-name="Rectangle 11" d="M3.329,0H148.981a3.33,3.33,0,0,1,3.33,3.33v27.6a3.331,3.331,0,0,1-3.331,3.331H3.331A3.331,3.331,0,0,1,0,30.93V3.329A3.329,3.329,0,0,1,3.329,0Z" transform="translate(3.128 3.014)" fill="#af550b"/>
                  </g>
                  <g id="Group_20" data-name="Group 20" transform="translate(17.996 16.017)">
                    <path id="Path_33" data-name="Path 33" d="M405.341,273.15H285.209a1.222,1.222,0,0,1-1.222-1.223h0a1.222,1.222,0,0,1,1.222-1.222H405.341a1.223,1.223,0,0,1,1.223,1.222h0A1.224,1.224,0,0,1,405.341,273.15Z" transform="translate(-283.987 -270.705)" fill="#d3d3d3"/>
                    <g id="Group_19" data-name="Group 19" transform="translate(2.533 0.52)">
                      <path id="Path_34" data-name="Path 34" d="M288.985,271.56h-2.776l-.442,5.037a1.837,1.837,0,1,0,3.659,0Zm-.411,2.523h-1.955v-1.8h1.955Z" transform="translate(-285.76 -270.858)" fill="#e5e5e5"/>
                      <path id="Path_35" data-name="Path 35" d="M287.172,273.575h0a.425.425,0,0,1-.424-.426v-1.656a.424.424,0,0,1,.424-.424h0a.424.424,0,0,1,.424.424v1.656A.425.425,0,0,1,287.172,273.575Z" transform="translate(-285.336 -271.069)" fill="#bcb7b3"/>
                    </g>
                  </g>
                </g>
                <g id="Group_27" data-name="Group 27" transform="translate(0 37.721)">
                  <g id="Group_22" data-name="Group 22">
                    <rect id="Rectangle_12" data-name="Rectangle 12" width="6.935" height="14.185" transform="translate(0 180.496)" fill="#282f39"/>
                    <rect id="Rectangle_13" data-name="Rectangle 13" width="6.935" height="14.185" fill="#282f39"/>
                  </g>
                  <g id="Group_26" data-name="Group 26" transform="translate(207.935 73.927)">
                    <g id="Group_25" data-name="Group 25">
                      <g id="Group_24" data-name="Group 24">
                        <g id="Group_23" data-name="Group 23">
                          <path id="Path_36" data-name="Path 36" d="M397.219,318.561v8.387h0c1.827,0,3.309,3.119,3.309,6.968v16.117c0,3.848-1.482,6.968-3.309,6.968h0v8.386h0c4.028,0,7.293-6.875,7.293-15.354V333.917c0-8.48-3.265-15.356-7.293-15.356Z" transform="translate(-397.219 -318.561)" fill="#282f39"/>
                        </g>
                      </g>
                    </g>
                  </g>
                </g>
              </g>
              <g id="Group_34" data-name="Group 34" transform="translate(52.434)">
                <g id="Group_32" data-name="Group 32">
                  <path id="Path_37" data-name="Path 37" d="M398.892,181.333a25.349,25.349,0,0,0-25.349-25.35H313.736a25.349,25.349,0,0,0-25.349,25.35v12.551h14.787v-8.277a14.552,14.552,0,0,1,14.551-14.551h51.829A14.552,14.552,0,0,1,384.1,185.607v8.277h14.787Z" transform="translate(-288.387 -155.983)" fill="#282f39"/>
                  <g id="Group_31" data-name="Group 31" transform="translate(3.004 37.901)">
                    <g id="Group_29" data-name="Group 29" transform="translate(95.428)">
                      <rect id="Rectangle_14" data-name="Rectangle 14" width="9.07" height="82.746" fill="#d3d3d3"/>
                    </g>
                    <g id="Group_30" data-name="Group 30">
                      <rect id="Rectangle_15" data-name="Rectangle 15" width="9.069" height="82.746" fill="#d3d3d3"/>
                    </g>
                  </g>
                </g>
                <g id="Group_33" data-name="Group 33" transform="translate(3.004 37.901)">
                  <rect id="Rectangle_16" data-name="Rectangle 16" width="9.07" height="10.695" transform="translate(95.428)" fill="#bcb7b3"/>
                  <rect id="Rectangle_17" data-name="Rectangle 17" width="9.069" height="10.695" fill="#bcb7b3"/>
                </g>
              </g>
            </g>
            <g id="Group_45" data-name="Group 45" transform="translate(68.276 153.495)">
              <g id="Group_41" data-name="Group 41">
                <path id="Path_38" data-name="Path 38" d="M202.815,229.218l-28.936,25.547-38.041-2.946L106.9,277.366l34.523,107.921,30.368-21.074,36.611-1.527,30.367-21.075,36.621-1.53L240.867,232.16Z" transform="translate(-106.9 -229.218)" fill="#d82c28"/>
                <g id="Group_36" data-name="Group 36" transform="translate(4.531 3.908)">
                  <path id="Path_39" data-name="Path 39" d="M134,248.685l32.854,102.709-25.114,17.425-31.672-99.01Z" transform="translate(-110.071 -224.778)" fill="#fff"/>
                  <path id="Path_40" data-name="Path 40" d="M167.059,251.8,198.4,349.776l-38.725,1.619L126.82,248.685Z" transform="translate(-102.889 -224.778)" fill="#c0c9c8"/>
                  <path id="Path_41" data-name="Path 41" d="M185.59,231.953,218.445,334.66l-32.122,22.29-31.341-97.975Z" transform="translate(-90.813 -231.953)" fill="#fff"/>
                  <path id="Path_42" data-name="Path 42" d="M207.871,234.383l31.671,99.009-30.283,1.268L176.4,231.953Z" transform="translate(-81.627 -231.953)" fill="#c0c9c8"/>
                </g>
                <g id="Group_40" data-name="Group 40" transform="translate(15.092 12.731)">
                  <g id="Group_37" data-name="Group 37">
                    <path id="Path_43" data-name="Path 43" d="M117.463,286.047l6.94-12.322,11.1,1.245,6.122-3.728-1.163-3.635-4.686-3.5,2.416-6.945L160.018,254l5.235,5.764-2.03,3.135-7.153-2.839-7.081,5.193-2.793,4.094,1.4,2.151,7.185,4.056,1.078-6.668,6.9-.751,1.614,2.256-.89,5.029,5.258,1.377,3.794,5.725-3.81,4.261-5.405.949-4.374,11.982-7.93,3.378-.073,5.626,4.645,2.812,2.582-4.2,19.151.191,5.629,7.557-6.564,9.043,3.177,10.486,4.787,3.812-2.182,2.662L166.555,336.9l-4.56-13.7-7.511-.618-1.972-6.163-6.622-5.646-2.371-10.757-9.388-3.135-1.68-13.615-4.484-2.866-6.737,6.826Z" transform="translate(-117.463 -231.321)" fill="#59a6ec"/>
                    <path id="Path_44" data-name="Path 44" d="M164.343,297.632l-3.9,6.2,5.342,11.68,7.534,2.361,10.877-5.6,8.4,13.976L200,332.682l4.025-1.36L202.4,308.405l-8.572-10.065,2.59-4.729-5.629-3.654,6.112-11.566,9.88,2.443,4.3,2.277,1.907,5.961,6.105,1.793.167-3.384-4.775-1.54.225-12.684-9.154-7.418,6.131-8.722-6.01-7.078,1.662-6.515-4.759-5.4L183.1,241.373l-8.583,11.652L160.137,260.5l-3.656,13.666,7.229,7.543,6.49,4.113,5.255-4.75,1.669,5.214-.866,7.32-6.534-2.021Z" transform="translate(-100.731 -238.128)" fill="#59a6ec"/>
                    <path id="Path_45" data-name="Path 45" d="M200.325,287.739l-6.318,4.234-1.512,6.99,4.638,3.338,4.767-4.061,4.572.909,2.665-2.825,4.254,3.816,2.122-2.29-6.09-5.651s3.821-4.791,3.506-5.209-5.412-4.654-5.412-4.654l-4.509,1.52.45,4.752Z" transform="translate(-85.288 -219.171)" fill="#59a6ec"/>
                  </g>
                  <g id="Group_39" data-name="Group 39" transform="translate(18.681 0.035)" opacity="0.5">
                    <path id="Path_46" data-name="Path 46" d="M145.406,303.091l-.075,5.625,4.646,2.813,2.574-4.2,19.159.2,5.629,7.557-6.569,9.045,3.183,10.484,4.782,3.806-2.176,2.668L160.942,336.9l-4.554-13.7-6.783-.56L133.629,272.7l2.392-1.458-1.166-3.643-3.75-2.789-.567-1.772,2.05-5.873L154.41,254l5.234,5.756-2.034,3.145-7.149-2.842-7.086,5.188-2.791,4.093,1.406,2.154,7.185,4.056,1.078-6.668,6.89-.748,1.621,2.258-.9,5.03,5.258,1.377,3.8,5.717-3.815,4.271-5.4.942-4.376,11.982Z" transform="translate(-130.538 -231.355)" fill="#59a6ec"/>
                    <g id="Group_38" data-name="Group 38" transform="translate(69.115)">
                      <path id="Path_47" data-name="Path 47" d="M202.077,257.144l-6.125,8.726,9.149,7.42-.225,12.684,4.775,1.54-.172,3.378-6.095-1.789-1.908-5.965-4.3-2.277-5.814-1.443L178.91,240.5l14.063-2.351,4.757,5.4-1.661,6.517Z" transform="translate(-178.91 -238.152)" fill="#59a6ec"/>
                      <path id="Path_48" data-name="Path 48" d="M208.586,292.226l6.087,5.645-2.125,2.292-4.251-3.818-2.669,2.833-4.574-.914-3.365,2.869-3.206-10.025,5-3.345,3.138.873-.45-4.755,4.5-1.519s5.1,4.235,5.417,4.655S208.586,292.226,208.586,292.226Z" transform="translate(-172.231 -219.194)" fill="#59a6ec"/>
                    </g>
                  </g>
                </g>
              </g>
              <g id="Group_42" data-name="Group 42" transform="translate(25.291 50.831)">
                <path id="Path_49" data-name="Path 49" d="M127.083,265.239a4.32,4.32,0,0,0-2.082,5.7c1,2.1,7.634,5.978,7.634,5.978s1.146-7.667.147-9.769A4.227,4.227,0,0,0,127.083,265.239Zm3.181,6.69a3.125,3.125,0,0,1-4.216-1.412,3.2,3.2,0,0,1,1.54-4.215,3.124,3.124,0,0,1,4.216,1.413A3.191,3.191,0,0,1,130.264,271.928Z" transform="translate(-124.6 -264.793)" fill="#d82c28"/>
              </g>
              <g id="Group_43" data-name="Group 43" transform="translate(93.303 43.158)">
                <path id="Path_50" data-name="Path 50" d="M174.683,259.869a4.321,4.321,0,0,0-2.082,5.7c1,2.1,7.636,5.978,7.636,5.978s1.145-7.667.146-9.767A4.226,4.226,0,0,0,174.683,259.869Zm3.182,6.688a3.122,3.122,0,0,1-4.216-1.412,3.194,3.194,0,0,1,1.54-4.215,3.126,3.126,0,0,1,4.216,1.412A3.2,3.2,0,0,1,177.865,266.557Z" transform="translate(-172.201 -259.423)" fill="#d82c28"/>
              </g>
              <g id="Group_44" data-name="Group 44" transform="translate(59.456 92.101)">
                <path id="Path_51" data-name="Path 51" d="M151,294.124a4.32,4.32,0,0,0-2.083,5.7c1,2.1,7.636,5.978,7.636,5.978s1.144-7.666.146-9.767A4.222,4.222,0,0,0,151,294.124Zm3.181,6.69a3.126,3.126,0,0,1-4.216-1.413,3.2,3.2,0,0,1,1.54-4.216,3.127,3.127,0,0,1,4.216,1.413A3.2,3.2,0,0,1,154.176,300.814Z" transform="translate(-148.512 -293.678)" fill="#d82c28"/>
              </g>
            </g>
            <g id="Group_53" data-name="Group 53" transform="translate(203.454 232.136)">
              <g id="Group_51" data-name="Group 51">
                <rect id="Rectangle_18" data-name="Rectangle 18" width="34.589" height="79.05" transform="translate(0 32.557) rotate(-70.263)" fill="#fff8e1"/>
                <g id="Group_47" data-name="Group 47" transform="translate(24.934 27.61)">
                  <g id="Group_46" data-name="Group 46">
                    <rect id="Rectangle_19" data-name="Rectangle 19" width="48.98" height="1.611" transform="translate(0.544 7.138) rotate(19.74)" fill="#c5ced7"/>
                    <rect id="Rectangle_20" data-name="Rectangle 20" width="48.98" height="1.611" transform="translate(1.825 3.57) rotate(19.737)" fill="#c5ced7"/>
                    <rect id="Rectangle_21" data-name="Rectangle 21" width="48.98" height="1.612" transform="translate(3.105) rotate(19.738)" fill="#c5ced7"/>
                  </g>
                </g>
                <g id="Group_50" data-name="Group 50" transform="translate(0)">
                  <g id="Group_49" data-name="Group 49">
                    <rect id="Rectangle_22" data-name="Rectangle 22" width="34.589" height="21.668" transform="translate(0 32.557) rotate(-70.263)" fill="#689f38"/>
                    <text id="TICKETS" transform="translate(4.727 30.736) rotate(19.738)" fill="#fff8e1" font-size="3" font-family="Montserrat-Bold, Montserrat" font-weight="700" letter-spacing="0.05em"><tspan x="0" y="0">TICKETS</tspan></text>
                    <text id="AIRPLANE" transform="translate(6.422 26.012) rotate(19.738)" fill="#fff8e1" font-size="1" font-family="Montserrat-Bold, Montserrat" font-weight="700" letter-spacing="0.05em"><tspan x="0" y="0">AIRPLANE</tspan></text>
                    <g id="Group_48" data-name="Group 48" transform="translate(10.824 10.19)">
                      <path id="Path_52" data-name="Path 52" d="M220.129,302.764l.889-.922-.719-1.463.409-.423a.317.317,0,0,0-.009-.446.314.314,0,0,0-.444.007l-.25.259-.667-1.366.379-.391a.315.315,0,0,0-.453-.437l-.22.23-.862-1.76c.3-.3.593-.593.863-.872,2.741-2.832,2.009-3.712,2.009-3.712s-.9-.7-3.645,2.13c-.27.279-.553.579-.843.892l-1.786-.8.221-.23a.315.315,0,1,0-.453-.439l-.379.4-1.387-.624.251-.257a.317.317,0,0,0-.009-.446.313.313,0,0,0-.444.007l-.407.423-1.49-.672-.889.92,4.854,3.882a44.754,44.754,0,0,0-2.96,3.786l-1.878-.42-.726.752,2.043.962,1.03,2.01.726-.75-.48-1.865a43.476,43.476,0,0,0,3.684-3.083Z" transform="translate(-209.084 -291.39)" fill="#f5c242"/>
                    </g>
                  </g>
                </g>
              </g>
              <rect id="Rectangle_23" data-name="Rectangle 23" width="13.92" height="13.921" transform="translate(33.523 12.326) rotate(19.738)" fill="#c5ced7"/>
              <g id="Group_52" data-name="Group 52" transform="translate(63.265 23.915)">
                <rect id="Rectangle_24" data-name="Rectangle 24" width="0.838" height="14.676" transform="translate(2.264 0.789) rotate(-70.285)" fill="#404851"/>
                <rect id="Rectangle_25" data-name="Rectangle 25" width="0.838" height="14.676" transform="translate(1.698 2.365) rotate(-70.276)" fill="#404851"/>
                <rect id="Rectangle_26" data-name="Rectangle 26" width="0.837" height="14.676" transform="translate(1.135 3.933) rotate(-70.2)" fill="#404851"/>
                <rect id="Rectangle_27" data-name="Rectangle 27" width="0.838" height="14.675" transform="matrix(0.338, -0.941, 0.941, 0.338, 0.567, 5.519)" fill="#404851"/>
                <rect id="Rectangle_28" data-name="Rectangle 28" width="0.838" height="14.676" transform="matrix(0.338, -0.941, 0.941, 0.338, 0, 7.097)" fill="#404851"/>
              </g>
            </g>
            <g id="Group_57" data-name="Group 57" transform="translate(252.19 208.83)">
              <path id="Path_53" data-name="Path 53" d="M281.766,328.842l-38.97,4.076-6.364-60.876,38.969-4.076a3.7,3.7,0,0,1,4.069,3.3l5.594,53.511A3.7,3.7,0,0,1,281.766,328.842Z" transform="translate(-235.269 -267.946)" fill="#083060"/>
              <path id="Path_54" data-name="Path 54" d="M280.951,328.928,241.982,333l-6.364-60.876,38.97-4.074a3.7,3.7,0,0,1,4.068,3.3l5.594,53.509A3.7,3.7,0,0,1,280.951,328.928Z" transform="translate(-235.618 -267.909)" fill="#003c94"/>
              <g id="Group_56" data-name="Group 56" transform="translate(4.145 2.813)">
                <path id="Path_55" data-name="Path 55" d="M238.519,273.522l34.389-3.595a2.266,2.266,0,0,1,2.489,2.019l5.359,51.256Z" transform="translate(-238.519 -269.914)" fill="#054da3"/>
                <g id="Group_55" data-name="Group 55" transform="translate(5.445 10.1)">
                  <g id="Group_54" data-name="Group 54">
                    <path id="Path_56" data-name="Path 56" d="M264.621,280.058c-.276-.229-.556-.444-.844-.652a12.959,12.959,0,0,0-8.707-2.37c-.069,0-.143.009-.213.016s-.143.016-.21.027a12.978,12.978,0,0,0-8.034,4.122c-.24.26-.47.532-.686.81A13.027,13.027,0,0,0,247.807,300q.4.343.839.65a12.971,12.971,0,0,0,8.713,2.372c.067,0,.143-.01.211-.017s.143-.014.211-.027a12.966,12.966,0,0,0,8.029-4.121c.24-.261.469-.53.692-.812a13.029,13.029,0,0,0-1.88-17.984Zm3.436,8.2h0l-5.281.551h0a22.737,22.737,0,0,0-1.562-6.08,13.375,13.375,0,0,0,2.649-1.9A11.912,11.912,0,0,1,268.057,288.253Zm-17.2-4.059a14.724,14.724,0,0,0,4.244.306l.529,5.055-5.041.526v0A22.256,22.256,0,0,1,250.854,284.194Zm4.647-6.081h0c1.565.164,3.116,1.737,4.3,4.134a13.582,13.582,0,0,1-3.752,1.083h0Zm-1.059.113.546,5.214a13.913,13.913,0,0,1-3.9-.284C251.755,280.569,252.946,278.709,254.442,278.226Zm1.295,12.386.529,5.054a14.515,14.515,0,0,0-4.088,1.18,22.227,22.227,0,0,1-1.48-5.705Zm.64,6.112.544,5.214c-1.563-.163-3.119-1.735-4.305-4.126A13.726,13.726,0,0,1,256.377,296.725Zm1.606,5.105h0l-.546-5.218h0a13.678,13.678,0,0,1,3.895.284C260.67,299.481,259.479,301.347,257.983,301.83Zm-.656-6.277h0L256.8,290.5l5.038-.526a22.172,22.172,0,0,1-.269,5.882A14.73,14.73,0,0,0,257.327,295.553Zm-.642-6.108-.527-5.055h0a14.744,14.744,0,0,0,4.079-1.176,22.218,22.218,0,0,1,1.486,5.7h0Zm6.32-9.273a12.3,12.3,0,0,1-2.233,1.582,10.669,10.669,0,0,0-2.652-3.555A11.878,11.878,0,0,1,263.005,280.172Zm-11.113-1.317a10.708,10.708,0,0,0-1.855,4.016,12.142,12.142,0,0,1-2.508-1.08A11.826,11.826,0,0,1,251.892,278.855Zm-5.069,3.749a13.592,13.592,0,0,0,2.981,1.315,22.864,22.864,0,0,0-.27,6.271h0l-5.275.552h0A11.889,11.889,0,0,1,246.822,282.6Zm-2.453,9.2,5.275-.55a22.984,22.984,0,0,0,1.56,6.08,13.441,13.441,0,0,0-2.643,1.9A11.878,11.878,0,0,1,244.369,291.8Zm5.052,8.086a12.013,12.013,0,0,1,2.229-1.583,10.7,10.7,0,0,0,2.65,3.552A11.887,11.887,0,0,1,249.421,299.887Zm11.1,1.317a10.661,10.661,0,0,0,1.86-4.028,12.3,12.3,0,0,1,2.513,1.093A11.865,11.865,0,0,1,260.525,301.2Zm5.079-3.753a13.341,13.341,0,0,0-2.986-1.315,22.684,22.684,0,0,0,.271-6.27l5.279-.552A11.912,11.912,0,0,1,265.6,297.451Z" transform="translate(-241.971 -276.983)" fill="#f5c242"/>
                    <text id="PASSPORT" transform="translate(0.52 37.911) rotate(-5.968)" fill="#f5c242" font-size="5" font-family="Montserrat-Bold, Montserrat" font-weight="700" letter-spacing="0.05em"><tspan x="0" y="0">PASSPORT</tspan></text>
                  </g>
                </g>
              </g>
            </g>
            <g id="Group_108" data-name="Group 108" transform="translate(69.384 249.917)">
              <path id="Path_57" data-name="Path 57" d="M229.46,310.5l.133,2.353H166.41l-.138-4.934Z" transform="translate(-82.549 -291.894)" fill="#12171e"/>
              <g id="Group_97" data-name="Group 97">
                <g id="Group_70" data-name="Group 70">
                  <g id="Group_65" data-name="Group 65" transform="translate(0 20.955)">
                    <path id="Rectangle_29" data-name="Rectangle 29" d="M5.282,0H224.9a5.281,5.281,0,0,1,5.281,5.281V165.34a5.282,5.282,0,0,1-5.282,5.282H5.281A5.281,5.281,0,0,1,0,165.341V5.282A5.282,5.282,0,0,1,5.282,0Z" transform="translate(0 0)" fill="#f5c242"/>
                    <path id="Path_58" data-name="Path 58" d="M321.168,363.057c-20.976,22.212-45.041,40.721-75.273,48.125-4.937,1.233-9.872,2.468-15.424,2.468-29,0-59.232.617-85.762-9.872-13.428-5.2-27.759-14.96-37.033-28.212v84.8a7.545,7.545,0,0,0,7.547,7.546H330.308a7.545,7.545,0,0,0,7.547-7.546V344.2C332.7,350.9,326.549,357.11,321.168,363.057Z" transform="translate(-107.676 -297.29)" fill="#f5c242" opacity="0.5"/>
                    <g id="Group_61" data-name="Group 61" transform="translate(0)">
                      <g id="Group_60" data-name="Group 60">
                        <g id="Group_58" data-name="Group 58">
                          <path id="Path_59" data-name="Path 59" d="M251.083,311.368a25.272,25.272,0,0,0,25.277,25.277V318.914a7.546,7.546,0,0,0-7.547-7.546Z" transform="translate(-46.181 -311.368)" fill="#915620"/>
                          <path id="Path_60" data-name="Path 60" d="M107.676,318.914v17.732a25.284,25.284,0,0,0,25.277-25.277h-17.73A7.545,7.545,0,0,0,107.676,318.914Z" transform="translate(-107.676 -311.368)" fill="#915620"/>
                        </g>
                        <g id="Group_59" data-name="Group 59" transform="translate(0 145.346)">
                          <path id="Path_61" data-name="Path 61" d="M251.083,438.369h17.73a7.546,7.546,0,0,0,7.547-7.546v-17.73A25.284,25.284,0,0,0,251.083,438.369Z" transform="translate(-46.181 -413.093)" fill="#915620"/>
                          <path id="Path_62" data-name="Path 62" d="M107.676,413.093v17.73a7.545,7.545,0,0,0,7.547,7.546h17.73A25.3,25.3,0,0,0,107.676,413.093Z" transform="translate(-107.676 -413.093)" fill="#915620"/>
                        </g>
                      </g>
                    </g>
                    <g id="Group_64" data-name="Group 64" transform="translate(6.047 6.438)">
                      <g id="Group_62" data-name="Group 62">
                        <path id="Path_63" data-name="Path 63" d="M111.908,318.975a3.1,3.1,0,1,0,3.1-3.1A3.1,3.1,0,0,0,111.908,318.975Z" transform="translate(-111.908 -315.874)" fill="#683a15" opacity="0.5"/>
                        <path id="Path_64" data-name="Path 64" d="M111.908,425.037a3.1,3.1,0,1,0,3.1-3.1A3.1,3.1,0,0,0,111.908,425.037Z" transform="translate(-111.908 -270.392)" fill="#683a15" opacity="0.5"/>
                      </g>
                      <g id="Group_63" data-name="Group 63" transform="translate(211.885)" opacity="0.5">
                        <path id="Path_65" data-name="Path 65" d="M260.2,318.975a3.1,3.1,0,1,0,3.1-3.1A3.1,3.1,0,0,0,260.2,318.975Z" transform="translate(-260.202 -315.874)" fill="#683a15"/>
                        <path id="Path_66" data-name="Path 66" d="M260.2,425.037a3.1,3.1,0,1,0,3.1-3.1A3.1,3.1,0,0,0,260.2,425.037Z" transform="translate(-260.202 -270.392)" fill="#683a15"/>
                      </g>
                    </g>
                  </g>
                  <g id="Group_68" data-name="Group 68" transform="translate(83.136)">
                    <g id="Group_67" data-name="Group 67">
                      <g id="Group_66" data-name="Group 66">
                        <path id="Path_67" data-name="Path 67" d="M165.861,317.657h11.446a9.509,9.509,0,0,1,9.509-9.509h22a9.508,9.508,0,0,1,9.509,9.509h11.448A20.958,20.958,0,0,0,208.813,296.7h-22a20.956,20.956,0,0,0-20.955,20.955Z" transform="translate(-165.861 -296.702)" fill="#683a15"/>
                      </g>
                    </g>
                  </g>
                  <g id="Group_69" data-name="Group 69" transform="translate(25.277 191.577)">
                    <rect id="Rectangle_30" data-name="Rectangle 30" width="21.755" height="4.75" fill="#282f39"/>
                    <rect id="Rectangle_31" data-name="Rectangle 31" width="21.757" height="4.75" transform="translate(157.869)" fill="#282f39"/>
                  </g>
                </g>
                <g id="Group_96" data-name="Group 96" transform="translate(16.767 20.955)">
                  <g id="Group_71" data-name="Group 71" transform="translate(59.454 124.657)">
                    <rect id="Rectangle_32" data-name="Rectangle 32" width="18.429" height="18.429" rx="1.141" transform="translate(18.018 21.889) rotate(-167.872)" fill="#d82c28"/>
                    <path id="Path_68" data-name="Path 68" d="M165.18,405.063l3.913.841.841-3.914,3.633.78-.841,3.914,3.913.84-.78,3.632-3.913-.84-.841,3.914-3.632-.783.841-3.911-3.913-.841Z" transform="translate(-159.573 -397.165)" fill="#fff8e1"/>
                  </g>
                  <g id="Group_72" data-name="Group 72" transform="translate(112.43 107.611)">
                    <path id="Path_69" data-name="Path 69" d="M198.808,401.483a20.068,20.068,0,1,0,24.634-14.09A20.067,20.067,0,0,0,198.808,401.483Z" transform="translate(-198.098 -386.683)" fill="#fff8e1"/>
                    <path id="Path_70" data-name="Path 70" d="M202,401.311l2.014-.188.248-5.816,3.9,2.29,1.714-2.3,3,5.562,1.106-9.435,2.334,2.332,4.741-4.651,1.7,6.42,3.2-.812-3.873,8.676,5.424-3.244.3,2.855,4.524.027-2.761,5.125,1.632,1.194-9.063,4.406.017,2.912-6.66-2.679-.962-.264-1.7,8.866-1.823-.5,2.9-8.532-.789-.219-7.092-1.1,1.5-2.495Z" transform="translate(-196.424 -385.646)" fill="#d82c28"/>
                  </g>
                  <g id="Group_75" data-name="Group 75" transform="translate(163.916 88.279)">
                    <g id="Group_74" data-name="Group 74">
                      <g id="Group_73" data-name="Group 73">
                        <path id="Path_71" data-name="Path 71" d="M244.507,388.478c6.42-5.172,6.5-10.84,6.5-10.84l.983-.157.983,9.42c.714,10.693-4.232,14.98-6.161,16.234Z" transform="translate(-229.683 -371.297)" fill="#282f39"/>
                        <path id="Path_72" data-name="Path 72" d="M257.259,413.1l-9.27,1.457L246.3,403.791c2.065-1.343,7.008-5.718,6.283-16.564l-.967-9.28,2.328-.081.157-.007.924-.034h.026l5.887-.207s1.276-1.2,2.225-1.082c0,0,.536.033.6.422l1.559-.246s.584-.09.077.489-1.683,1.362-4.548,1.86a9.925,9.925,0,0,1-1.314,2.1l-.009.007c-.079.1-.166.206-.254.307a.417.417,0,0,1-.047.057,9.99,9.99,0,0,1-6.383,3.435Z" transform="translate(-228.916 -371.706)" fill="#282f39"/>
                        <path id="Path_73" data-name="Path 73" d="M234.448,384.335c.653.393,1.989.776,4.812.386a.721.721,0,0,0,.09-.013,10.458,10.458,0,0,0,9.43,3.162l.281,1.793a20.992,20.992,0,0,0,1.813-1.726c3.868-4.155,4.151-8.109,4.166-8.479l-.357.01-.6-3.822-.077-.437a2.445,2.445,0,0,0-1.78-1.973,2.381,2.381,0,0,0-1-.053,2.434,2.434,0,0,0-2.026,2.782l.061.441.6,3.824-11.036,3.133s-1.583-.75-2.449-.346c0,0-.506.194-.444.586l-1.559.244S233.786,383.939,234.448,384.335Z" transform="translate(-234.132 -373.153)" fill="#282f39"/>
                      </g>
                    </g>
                  </g>
                  <g id="Group_76" data-name="Group 76" transform="translate(42.5 24.784)">
                    <path id="Path_74" data-name="Path 74" d="M149.586,337.7a12.179,12.179,0,1,0,14.95-8.551A12.18,12.18,0,0,0,149.586,337.7Z" transform="translate(-149.155 -328.714)" fill="#fff8e1"/>
                    <path id="Path_75" data-name="Path 75" d="M153.716,337.464a5.965,5.965,0,1,0,7.321-4.188A5.965,5.965,0,0,0,153.716,337.464Z" transform="translate(-147.29 -326.848)" fill="#d82c28"/>
                  </g>
                  <g id="Group_77" data-name="Group 77" transform="translate(162.469 22.177)">
                    <rect id="Rectangle_33" data-name="Rectangle 33" width="22.152" height="22.152" transform="translate(9.628 0.001) rotate(25.761)" fill="#fff8e1"/>
                    <rect id="Rectangle_34" data-name="Rectangle 34" width="7.524" height="22.152" transform="translate(9.627) rotate(25.755)" fill="#d82c28"/>
                    <rect id="Rectangle_35" data-name="Rectangle 35" width="7.445" height="22.152" transform="translate(22.861 6.418) rotate(25.762)" fill="#689f38"/>
                  </g>
                  <g id="Group_78" data-name="Group 78" transform="translate(7.269 103.666)">
                    <path id="Path_76" data-name="Path 76" d="M139.272,394.014c1.763,1.3,3.278,2.492,4.4,3.466l2.592-1.279,3.435,2.169-3.784,3.055-1.129,4.732-3.436-2.167.037-2.891c-1.359-.592-3.089-1.442-5.022-2.476l-4.466,8.823-3.585-2.262.553-2.515-.049-.03a1.781,1.781,0,0,1-.386-.331,1.73,1.73,0,0,1,.926-2.819,1.882,1.882,0,0,1,.214-.036l.034-.154a1.735,1.735,0,0,1-.379-.329,1.73,1.73,0,0,1,.924-2.819c.05-.01.1-.021.151-.029l.187-.856c-.311-.191-.616-.379-.909-.564a17.58,17.58,0,0,1-3.875-3.111c-1.606-1.853-1.2-3.081-1.042-3.413l.059-.121.084-.1c.546-.684,2.415-1.9,8,1.627.293.184.594.379.9.579l.69-.537a1.731,1.731,0,0,1,2.566-2l.124-.1a1.731,1.731,0,0,1,2.55-2.053l.05.03,2.03-1.58,3.586,2.262Z" transform="translate(-124.498 -383.922)" fill="#fff8e1"/>
                    <path id="Path_77" data-name="Path 77" d="M143.135,386.05l-1.7-1.074-2.033,1.58-.78-.493a.5.5,0,0,0-.686.157.494.494,0,0,0,.156.683l.477.3-1.89,1.47-.727-.459a.5.5,0,1,0-.53.839l.424.269-2.436,1.9c-.559-.373-1.1-.726-1.623-1.053-5.257-3.318-6.378-1.9-6.378-1.9s-.793,1.623,4.465,4.938c.516.329,1.07.667,1.646,1.013l-.663,3.016-.424-.269a.5.5,0,1,0-.529.839l.727.46-.514,2.34-.479-.3a.5.5,0,0,0-.53.839l.782.494-.551,2.515,1.7,1.074,4.428-8.744a69.814,69.814,0,0,0,6.8,3.349l-.041,3.031,1.393.88.824-3.465,2.772-2.236-1.393-.88L143.1,398.5a69.831,69.831,0,0,0-5.948-4.691Z" transform="translate(-124.128 -383.47)" fill="#054da1"/>
                  </g>
                  <g id="Group_95" data-name="Group 95" transform="translate(26.957)">
                    <g id="Group_86" data-name="Group 86">
                      <g id="Group_82" data-name="Group 82" transform="translate(3.309 0)">
                        <g id="Group_81" data-name="Group 81">
                          <g id="Group_80" data-name="Group 80">
                            <g id="Group_79" data-name="Group 79">
                              <rect id="Rectangle_36" data-name="Rectangle 36" width="18.268" height="170.622" fill="#683a15"/>
                            </g>
                          </g>
                        </g>
                      </g>
                      <g id="Group_83" data-name="Group 83">
                        <path id="Path_78" data-name="Path 78" d="M163.163,311.368H138.277V320.7a12.443,12.443,0,0,0,12.442,12.442h0A12.442,12.442,0,0,0,163.163,320.7Z" transform="translate(-138.277 -311.368)" fill="#915620"/>
                        <path id="Path_79" data-name="Path 79" d="M144.816,319.92a3.1,3.1,0,1,0,3.1-3.1A3.1,3.1,0,0,0,144.816,319.92Z" transform="translate(-135.473 -309.031)" fill="#d3d3d3"/>
                      </g>
                      <g id="Group_85" data-name="Group 85" transform="translate(0 46.236)">
                        <path id="Path_80" data-name="Path 80" d="M138.277,437.318h24.886v-9.332a12.442,12.442,0,0,0-12.444-12.444h0a12.443,12.443,0,0,0-12.442,12.444Z" transform="translate(-138.277 -312.933)" fill="#915620"/>
                        <path id="Path_81" data-name="Path 81" d="M151.016,424.093a3.1,3.1,0,1,0-3.1,3.1A3.1,3.1,0,0,0,151.016,424.093Z" transform="translate(-135.473 -310.595)" fill="#d3d3d3"/>
                        <g id="Group_84" data-name="Group 84" transform="translate(9.343)">
                          <path id="Path_82" data-name="Path 82" d="M151.016,397.186a3.1,3.1,0,1,0-3.1,3.1A3.1,3.1,0,0,0,151.016,397.186Z" transform="translate(-144.816 -322.134)" fill="#d3d3d3"/>
                          <path id="Path_83" data-name="Path 83" d="M151.016,372.006a3.1,3.1,0,1,0-3.1,3.1A3.1,3.1,0,0,0,151.016,372.006Z" transform="translate(-144.816 -332.931)" fill="#d3d3d3"/>
                          <path id="Path_84" data-name="Path 84" d="M151.016,346.829a3.1,3.1,0,1,0-3.1,3.1A3.1,3.1,0,0,0,151.016,346.829Z" transform="translate(-144.816 -343.728)" fill="#d3d3d3"/>
                        </g>
                      </g>
                    </g>
                    <g id="Group_94" data-name="Group 94" transform="translate(117.846)">
                      <g id="Group_90" data-name="Group 90" transform="translate(3.309 0)">
                        <g id="Group_89" data-name="Group 89">
                          <g id="Group_88" data-name="Group 88">
                            <g id="Group_87" data-name="Group 87">
                              <rect id="Rectangle_37" data-name="Rectangle 37" width="18.268" height="170.622" fill="#683a15"/>
                            </g>
                          </g>
                        </g>
                      </g>
                      <g id="Group_91" data-name="Group 91">
                        <path id="Path_85" data-name="Path 85" d="M245.641,311.368H220.755V320.7A12.443,12.443,0,0,0,233.2,333.143h0A12.443,12.443,0,0,0,245.641,320.7Z" transform="translate(-220.755 -311.368)" fill="#915620"/>
                        <path id="Path_86" data-name="Path 86" d="M227.294,319.92a3.1,3.1,0,1,0,3.1-3.1A3.1,3.1,0,0,0,227.294,319.92Z" transform="translate(-217.951 -309.031)" fill="#d3d3d3"/>
                      </g>
                      <g id="Group_93" data-name="Group 93" transform="translate(0 46.236)">
                        <path id="Path_87" data-name="Path 87" d="M220.755,437.318h24.886v-9.332A12.443,12.443,0,0,0,233.2,415.543h0a12.443,12.443,0,0,0-12.444,12.444Z" transform="translate(-220.755 -312.933)" fill="#915620"/>
                        <path id="Path_88" data-name="Path 88" d="M233.494,424.093a3.1,3.1,0,1,0-3.1,3.1A3.1,3.1,0,0,0,233.494,424.093Z" transform="translate(-217.951 -310.595)" fill="#d3d3d3"/>
                        <g id="Group_92" data-name="Group 92" transform="translate(9.343)">
                          <path id="Path_89" data-name="Path 89" d="M233.494,397.186a3.1,3.1,0,1,0-3.1,3.1A3.1,3.1,0,0,0,233.494,397.186Z" transform="translate(-227.294 -322.134)" fill="#d3d3d3"/>
                          <path id="Path_90" data-name="Path 90" d="M233.494,372.006a3.1,3.1,0,1,0-3.1,3.1A3.1,3.1,0,0,0,233.494,372.006Z" transform="translate(-227.294 -332.931)" fill="#d3d3d3"/>
                          <path id="Path_91" data-name="Path 91" d="M233.494,346.829a3.1,3.1,0,1,0-3.1,3.1A3.1,3.1,0,0,0,233.494,346.829Z" transform="translate(-227.294 -343.728)" fill="#d3d3d3"/>
                        </g>
                      </g>
                    </g>
                  </g>
                  <path id="Path_92" data-name="Path 92" d="M126.337,342.563l3.994,4.656,6.1-.652-3.193,5.237,2.5,5.6-5.967-1.419-4.551,4.111-.495-6.112-5.317-3.06,5.662-2.358Z" transform="translate(-119.411 -297.991)" fill="#282f39"/>
                </g>
              </g>
              <g id="Group_107" data-name="Group 107" transform="translate(78.926 16.021)">
                <g id="Group_106" data-name="Group 106" transform="translate(23.518 54.447)">
                  <g id="Group_102" data-name="Group 102">
                    <g id="Group_98" data-name="Group 98" transform="translate(33.952)">
                      <path id="Path_93" data-name="Path 93" d="M212.4,360.623l-5,.541-1.547-6.566,6.656-.72Z" transform="translate(-201.972 -342.653)" fill="#283039"/>
                      <path id="Rectangle_38" data-name="Rectangle 38" d="M.982,0h10.15a.983.983,0,0,1,.983.983V11.132a.982.982,0,0,1-.982.982H.984A.984.984,0,0,1,0,11.131V.982A.982.982,0,0,1,.982,0Z" transform="translate(0 1.306) rotate(-6.188)" fill="#d5dce0"/>
                      <rect id="Rectangle_39" data-name="Rectangle 39" width="8.944" height="8.944" transform="translate(1.748 2.71) rotate(-6.179)" fill="#c3ccd5"/>
                      <rect id="Rectangle_40" data-name="Rectangle 40" width="7.799" height="7.798" transform="translate(2.378 3.218) rotate(-6.183)" fill="#283039"/>
                      <rect id="Rectangle_41" data-name="Rectangle 41" width="5.412" height="5.412" transform="translate(3.693 4.277) rotate(-6.188)" fill="#12171e"/>
                      <path id="Path_94" data-name="Path 94" d="M209.891,348.7l-4.169.453.582,5.379.794-.087A14.459,14.459,0,0,1,209.891,348.7Z" transform="translate(-202.028 -344.874)" fill="#2d3842" opacity="0.2"/>
                    </g>
                    <g id="Group_101" data-name="Group 101" transform="translate(0 16.388)">
                      <path id="Path_95" data-name="Path 95" d="M181.453,362.642a2.434,2.434,0,0,0-2.075,2.206,1.031,1.031,0,0,0,.014.247l2.708,25.02a2.392,2.392,0,0,0,2.635,2.12l47.351-5.124a2.394,2.394,0,0,0,2.12-2.636L231.52,359.66a2.42,2.42,0,0,0-2.669-2.148Z" transform="translate(-179.374 -357.488)" fill="#054da3"/>
                      <path id="Path_96" data-name="Path 96" d="M180.406,376.005l1.252,11.556a2.392,2.392,0,0,0,2.635,2.12l47.351-5.124a2.394,2.394,0,0,0,2.12-2.636l-2-18.469a28.147,28.147,0,0,1-4.912,3.493C213.407,374.4,195.609,381.99,180.406,376.005Z" transform="translate(-178.932 -354.935)" fill="#003c94"/>
                      <g id="Group_99" data-name="Group 99" transform="translate(3.017 1.125)">
                        <rect id="Rectangle_42" data-name="Rectangle 42" width="7.28" height="2.34" transform="translate(0 1.572) rotate(-6.173)" fill="#12171e"/>
                        <rect id="Rectangle_43" data-name="Rectangle 43" width="5.875" height="2.34" transform="translate(8.685 0.633) rotate(-6.189)" fill="#12171e"/>
                      </g>
                      <g id="Group_100" data-name="Group 100" transform="translate(0.016)">
                        <path id="Path_97" data-name="Path 97" d="M179.4,365.208l.224,2.062,52.106-5.638-.224-2.065a2.324,2.324,0,0,0-2.563-2.062l-47.48,5.138A2.327,2.327,0,0,0,179.4,365.208Z" transform="translate(-179.386 -357.491)" fill="#c3ccd5"/>
                        <path id="Path_98" data-name="Path 98" d="M228.923,357.505l-47.48,5.138a2.325,2.325,0,0,0-2.013,1.786l51.842-5.611A2.324,2.324,0,0,0,228.923,357.505Z" transform="translate(-179.366 -357.491)" fill="#d5dce0"/>
                        <path id="Path_99" data-name="Path 99" d="M181.139,380.691l.2,1.9a2.392,2.392,0,0,0,2.635,2.12l47.351-5.124a2.394,2.394,0,0,0,2.12-2.636l-.206-1.895Z" transform="translate(-178.634 -349.96)" fill="#c3ccd5"/>
                      </g>
                      <path id="Path_100" data-name="Path 100" d="M181.8,383.023a2.379,2.379,0,0,0,1.889.631l47.351-5.124a2.382,2.382,0,0,0,1.71-1.023Z" transform="translate(-178.332 -348.908)" fill="#d5dce0"/>
                    </g>
                  </g>
                  <g id="Group_105" data-name="Group 105" transform="translate(14.523 15.482)">
                    <g id="Group_103" data-name="Group 103">
                      <path id="Path_101" data-name="Path 101" d="M221.51,371.164a16.032,16.032,0,1,1-17.663-14.212A16.034,16.034,0,0,1,221.51,371.164Z" transform="translate(-189.539 -356.857)" fill="#d5dce0"/>
                      <path id="Path_102" data-name="Path 102" d="M219.612,370.881a14.565,14.565,0,1,1-16.048-12.914A14.566,14.566,0,0,1,219.612,370.881Z" transform="translate(-189.099 -356.417)" fill="#404751"/>
                      <path id="Path_103" data-name="Path 103" d="M217.018,370.495a12.56,12.56,0,1,1-13.838-11.135A12.559,12.559,0,0,1,217.018,370.495Z" transform="translate(-188.497 -355.815)" fill="#283039"/>
                      <path id="Path_104" data-name="Path 104" d="M215.744,370.307a11.576,11.576,0,1,1-12.755-10.266A11.576,11.576,0,0,1,215.744,370.307Z" transform="translate(-188.202 -355.521)" fill="#12171e"/>
                    </g>
                    <path id="Path_105" data-name="Path 105" d="M207.811,369.128a5.447,5.447,0,1,1-6-4.832A5.447,5.447,0,0,1,207.811,369.128Z" transform="translate(-186.362 -353.681)" fill="#31476c"/>
                    <path id="Path_106" data-name="Path 106" d="M214.236,365.722a11.577,11.577,0,0,0-20.276,11.163A28.748,28.748,0,0,0,214.236,365.722Z" transform="translate(-188.202 -355.521)" fill="#2d3842" opacity="0.2"/>
                    <g id="Group_104" data-name="Group 104" transform="translate(15.678 8.499)">
                      <path id="Path_107" data-name="Path 107" d="M202.857,367a2.359,2.359,0,1,1,3.316-.359A2.359,2.359,0,0,1,202.857,367Z" transform="translate(-199.883 -362.805)" fill="#d5dce0"/>
                      <path id="Path_108" data-name="Path 108" d="M202.413,369.668a1.659,1.659,0,1,1,1.4-1.882A1.661,1.661,0,0,1,202.413,369.668Z" transform="translate(-200.512 -361.277)" fill="#d5dce0"/>
                    </g>
                  </g>
                </g>
                <path id="Path_109" data-name="Path 109" d="M186.512,385.688l-23.6-72.839,4.8-4.934.138,4.934,18.929,72.175Z" transform="translate(-162.915 -307.915)" fill="#12171e"/>
                <path id="Path_110" data-name="Path 110" d="M216.693,378.135l-6.064-66.06-.133-2.353,3.535,2.353,3.271,66.459Z" transform="translate(-142.511 -307.14)" fill="#12171e"/>
              </g>
            </g>
            <g id="Group_116" data-name="Group 116" transform="translate(350.097 7.369)">
              <g id="Group_114" data-name="Group 114">
                <g id="Group_113" data-name="Group 113">
                  <g id="Group_112" data-name="Group 112">
                    <g id="Group_111" data-name="Group 111">
                      <g id="Group_109" data-name="Group 109">
                        <path id="Path_111" data-name="Path 111" d="M305.485,130.507c-2.919,4.079-.973,11.2,4.757,20.091,9.8,15.184,30.688,35.515,57.3,54.562,42.18,30.187,82.777,45.7,90.681,34.657,3.844-5.369-.746-16.024-11.311-29.019-11.183-13.745-29.059-30.119-50.746-45.639C353.991,134.974,313.39,119.463,305.485,130.507Z" transform="translate(-304.141 -126.947)" fill="#b21b1b"/>
                        <path id="Path_112" data-name="Path 112" d="M305.485,130.507c-2.919,4.079-.973,11.2,4.757,20.091,11.183,13.745,29.058,30.119,50.744,45.639,42.18,30.185,82.781,45.7,90.687,34.65,2.913-4.071.973-11.2-4.757-20.089-11.183-13.745-29.059-30.119-50.746-45.639C353.991,134.974,313.39,119.463,305.485,130.507Z" transform="translate(-304.141 -126.947)" fill="#d82c28"/>
                      </g>
                      <g id="Group_110" data-name="Group 110" transform="translate(45.228 1.11)">
                        <path id="Path_113" data-name="Path 113" d="M335.795,153.641a87.721,87.721,0,0,0,72.5,51.875,69.584,69.584,0,0,0,6.011-10.4,65.763,65.763,0,0,0,3.381-8.769,57.007,57.007,0,0,0,2.143-24.907,42.072,42.072,0,0,0-7.358-18.665c-.187-.257-.376-.516-.574-.774h-.006c-.269-.354-.54-.7-.823-1.04-.533-.653-1.093-1.277-1.673-1.892-.073-.071-.144-.147-.21-.217-.227-.237-.461-.47-.7-.7-.073-.077-.149-.154-.227-.233-.279-.267-.572-.537-.869-.8-.274-.254-.564-.5-.846-.739-.157-.141-.316-.273-.48-.4-.147-.121-.292-.231-.444-.35-.176-.144-.352-.283-.534-.421-.28-.207-.56-.42-.84-.622-14.658-10.485-35.109-8.566-52.1,3.1A66.255,66.255,0,0,0,343.7,144.6,69.687,69.687,0,0,0,335.795,153.641Z" transform="translate(-335.795 -127.724)" fill="#d82c28"/>
                      </g>
                    </g>
                  </g>
                </g>
                <path id="Path_114" data-name="Path 114" d="M335.795,150.651a87.721,87.721,0,0,0,72.5,51.875,69.584,69.584,0,0,0,6.011-10.4,65.763,65.763,0,0,0,3.381-8.769,57.007,57.007,0,0,0,2.143-24.907,31.563,31.563,0,0,1-21.041,12.224c-13.851,1.625-27.756-5.73-36.451-16.631A61.853,61.853,0,0,1,352.146,134.7,66.255,66.255,0,0,0,343.7,141.6,69.687,69.687,0,0,0,335.795,150.651Z" transform="translate(-290.567 -123.624)" fill="#b21b1b"/>
                <path id="Path_115" data-name="Path 115" d="M335.795,148.578a87.721,87.721,0,0,0,72.5,51.875,69.584,69.584,0,0,0,6.011-10.4,65.763,65.763,0,0,0,3.381-8.769c-16.969,4.4-33.351,1.48-45.383-7.133a87.884,87.884,0,0,1-24.673-27.2q-2.115-3.584-3.926-7.423A69.687,69.687,0,0,0,335.795,148.578Z" transform="translate(-290.567 -121.551)" fill="#fff"/>
              </g>
              <g id="Group_115" data-name="Group 115" transform="translate(97.476 69.6)">
                <path id="Path_116" data-name="Path 116" d="M389.14,175.659c1.637,8.674-.99,17.594-4.542,25.674s-8.07,15.786-10.54,24.258-2.635,18.17,2.185,25.564a22.263,22.263,0,0,1,4-11.966,27.557,27.557,0,0,0,14.9,13.6c-5.305-11.635-2.71-25.176.109-37.648s5.7-25.877.876-37.719C394.2,176.725,391.061,176.358,389.14,175.659Z" transform="translate(-372.362 -175.659)" fill="#ddd7d7"/>
                <path id="Path_117" data-name="Path 117" d="M382.212,176.639c5.2,8.7,5.9,19.363,5.272,29.482s-2.449,20.216-1.757,30.331,4.357,20.635,12.482,26.7a25.574,25.574,0,0,1-.43-14.485,31.653,31.653,0,0,0,21.452,8.76c-10.329-10.442-12.894-26.07-14.8-40.636s-4.1-30.159-13.994-41.017C388.094,175.782,384.56,176.63,382.212,176.639Z" transform="translate(-368.139 -175.61)" fill="#fff"/>
              </g>
            </g>
            <g id="Group_117" data-name="Group 117" transform="translate(211.645 105.447)">
              <path id="Path_118" data-name="Path 118" d="M215.261,223.842l1.069,4.018,1.072-4.018a21.243,21.243,0,0,1,8.02-12.116,21.247,21.247,0,0,1-8.02-12.118l-1.072-4.018-1.069,4.018a21.254,21.254,0,0,1-8.02,12.118A21.25,21.25,0,0,1,215.261,223.842Z" transform="translate(-207.241 -195.59)" fill="#fafafa"/>
              <path id="Path_119" data-name="Path 119" d="M232.742,245.682l1.473,5.531,1.475-5.531c1.9-7.121,5.84-13.077,11.042-16.683-5.2-3.608-9.144-9.563-11.042-16.684l-1.475-5.53-1.473,5.53c-1.9,7.121-5.84,13.077-11.043,16.684C226.9,232.605,230.845,238.56,232.742,245.682Z" transform="translate(-201.041 -190.789)" fill="#fafafa"/>
            </g>
            <g id="Group_118" data-name="Group 118" transform="translate(505.53 320.371)">
              <path id="Path_120" data-name="Path 120" d="M417.843,360.556l.656-2.462.657,2.462a13.016,13.016,0,0,0,4.917,7.431,13.03,13.03,0,0,0-4.917,7.431l-.657,2.463-.656-2.463a13.04,13.04,0,0,0-4.918-7.431A13.025,13.025,0,0,0,417.843,360.556Z" transform="translate(-412.925 -340.83)" fill="#fafafa"/>
              <path id="Path_121" data-name="Path 121" d="M428.564,349.4l.9-3.391.9,3.391a17.94,17.94,0,0,0,6.773,10.232,17.94,17.94,0,0,0-6.773,10.232l-.9,3.391-.9-3.391a17.94,17.94,0,0,0-6.773-10.232A17.94,17.94,0,0,0,428.564,349.4Z" transform="translate(-409.123 -346.011)" fill="#fafafa"/>
            </g>
            <g id="Group_119" data-name="Group 119" transform="translate(306.441)">
              <path id="Path_122" data-name="Path 122" d="M279.694,139.848l.814-3.058.816,3.058a16.165,16.165,0,0,0,6.1,9.223,16.169,16.169,0,0,0-6.1,9.224l-.816,3.058-.814-3.058a16.166,16.166,0,0,0-6.107-9.224A16.162,16.162,0,0,0,279.694,139.848Z" transform="translate(-273.587 -115.358)" fill="#fafafa"/>
              <path id="Path_123" data-name="Path 123" d="M293,126l1.123-4.209L295.244,126a22.264,22.264,0,0,0,8.407,12.7,22.269,22.269,0,0,0-8.407,12.7l-1.122,4.209L293,151.4a22.258,22.258,0,0,0-8.4-12.7A22.254,22.254,0,0,0,293,126Z" transform="translate(-268.867 -121.79)" fill="#fafafa"/>
            </g>
            <g id="Group_120" data-name="Group 120" transform="translate(0 217.33)">
              <path id="Path_124" data-name="Path 124" d="M77.153,288.44l-.656-2.462-.657,2.462a13.017,13.017,0,0,1-4.918,7.43A13.029,13.029,0,0,1,75.84,303.3l.657,2.462.656-2.462a13.045,13.045,0,0,1,4.919-7.433A13.033,13.033,0,0,1,77.153,288.44Z" transform="translate(-54.052 -268.714)" fill="#fafafa"/>
              <path id="Path_125" data-name="Path 125" d="M67.7,277.287l-.9-3.392-.9,3.392a17.931,17.931,0,0,1-6.773,10.229,17.934,17.934,0,0,1,6.773,10.23l.9,3.392.9-3.392a17.939,17.939,0,0,1,6.771-10.23A17.935,17.935,0,0,1,67.7,277.287Z" transform="translate(-59.115 -273.895)" fill="#fafafa"/>
            </g>
          </g>
        </g>
      </g>
    </g>
  </g>
</svg>
