<svg xmlns="http://www.w3.org/2000/svg" width="117.137" height="52.797" viewBox="0 0 117.137 52.797">
  <path id="Path_155" data-name="Path 155" d="M641.519,402.012c-3.688-1.444-9.843-.563-10.735,3.3a5.864,5.864,0,0,0-7.454-7.178c.443-2.605-1.848-4.619-4.479-4.861a15.709,15.709,0,0,0,2.212-5.146,5.331,5.331,0,0,0-1.651-5.1,2.763,2.763,0,0,0-4.307.985,18.519,18.519,0,0,0-22.583-7.194c-7.9,3.483-12.507,12.675-10.023,20.945-2.385.015-3.806,2.671-2.9,4.876a3.619,3.619,0,0,0-4.339,1.325,3.331,3.331,0,0,0,0,3.017,5.794,5.794,0,0,0-4.947-1.339,8.834,8.834,0,0,0-5.644,4.6,22.3,22.3,0,0,0-2.1,6.576c-5.187-2.613-11.442-.92-16.856,1.184s-9.961,3.87-15.769,3.87c24.652,4.176,24.652,4.176,30.053,2,11.438,5.513,25.761,5.541,37.767,1.409,1.4,2.273,4.48,2.888,7.128,2.546s5.174-1.4,7.836-1.6c2.109-.159,4.231.228,6.341.083s3.96-.632,4.95-2.5a18.477,18.477,0,0,0,13.68,1.5,6.557,6.557,0,0,0,3.879-2.435,3.36,3.36,0,0,0,.456-2.32c2.545-2.394,4.764-5.626,5.019-8.922C647.359,407.677,645.207,403.457,641.519,402.012Z" transform="translate(-529.945 -375.417)" fill="#fff"/>
</svg>
