<svg xmlns="http://www.w3.org/2000/svg" width="258.816" height="39.945" viewBox="0 0 258.816 39.945">
  <path id="Path_152" data-name="Path 152" d="M777.2,260.555h.007a41.866,41.866,0,0,0-21.6-3.777c-7.974-6.569-17.12-12.231-27.333-13.8s-21.206,1.412-27.268,9.778c-5.965-6.014-14.922-7.419-22.871-4.493a78.262,78.262,0,0,0-55.878-16.946c-19.872,1.845-40.787,11.076-53.708,26.287-8.6-1.942-17.475-3.894-26.156-2.356-7.676,1.361-13.969,5.3-21.765,5.3,28.583,4.485,41.646,7.564,59.567,2.941a74.827,74.827,0,0,0,20.246,3.353c8.749.226,17.833.389,25.838-3.148,5.987,4.775,16.019,4.54,22.448.379,24.241,8.78,51.814,8.965,76.505,1.545a31.259,31.259,0,0,0,25.942-1.638c7.21,4.82,7.1-3.392,28.271-3.392Z" transform="translate(-520.623 -231)" fill="#fff"/>
</svg>
