<svg xmlns="http://www.w3.org/2000/svg" width="365.477" height="66.041" viewBox="0 0 365.477 66.041">
  <path id="Path_153" data-name="Path 153" d="M744.86,175.164a18.244,18.244,0,0,0-8.7-15.826c-5.419-3.237-13.46-2.561-18.935.58a12.318,12.318,0,0,0-4.7-13.123c-4.074-2.827-9.6-1.481-13.592,1.455-5.217-4.915-10.875-9.528-17.462-12.354s-14.25-3.712-20.937-1.131c-6.582,2.541-11.593,8.178-14.82,14.452s-5.137,14.128-6.763,20.994c-2.157-3.513-8.023-3.518-11.485-1.28a32.17,32.17,0,0,0-16.384-11.153c-4.1-1.188-8.6-1.52-12.575.022s-7.154,4.45-7.358,8.712c-2.869-6.475-5.793-13.041-10.3-18.5s-10.9-9.766-17.966-10.184-13.792,4.693-15.624,11.535a12.87,12.87,0,0,0-14.268-5.03c-.022.718-1.179,1.033-1.2,1.752a25,25,0,0,0-28.9-7.854c-9.91,4.188-15.363,16.224-13.653,26.845a14.544,14.544,0,0,0-17.7-1.528c-5.3,3.593-8.679,11.062-6.256,16.992a30.28,30.28,0,0,0-23.2-3.147c-10.373,2.841-17.365,8.535-28.12,8.535h11.68c19.916,0,37.857,8.751,46.065,9.319s16.761-.665,23.773-4.968c27.516,9.644,58.586,11.244,86.652,3.341,25.108,8.3,53.416,7.55,77.735-2.841,6.294,6.819,18.522,7.1,25.643,1.147,9.256,4.416,20.453,3.753,29.5-1.083a70.328,70.328,0,0,0,21.129.886c7.432-.842,6.7-5.8,27.136-5.8H779.44C755.922,185.928,755.93,173.005,744.86,175.164Z" transform="translate(-413.963 -133.234)" fill="#fff"/>
</svg>
