<svg xmlns="http://www.w3.org/2000/svg" width="122.896" height="48.1" viewBox="0 0 122.896 48.1"><defs><style>.a{fill:#76be57;}</style></defs><path d="M105.523,392.146a7.44,7.44,0,1,1,5.27-12.688,3.3,3.3,0,0,0,0-3.217,17.164,17.164,0,0,0-1.5-1.043,11.019,11.019,0,0,0-16.225,9.564c0,.333-.026.666-.041,1l.5,2.365a1.994,1.994,0,0,1,.2.311,10.705,10.705,0,0,0,9.335,7,11.165,11.165,0,0,0,6.308-.961,1.514,1.514,0,0,0,.842-.636,7.4,7.4,0,0,0,1.082-4.4A7.427,7.427,0,0,1,105.523,392.146Z" transform="translate(-76.351 -354.413)"/><path d="M184.181,388.81c0-1.423,0-2.851-.056-4.275a.8.8,0,0,1,.666-.911,3.386,3.386,0,0,1,3.812,1.246c.8-.281,1.588-.623,2.406-.826a8.653,8.653,0,0,1,10.637,7.063,1.863,1.863,0,0,1,.032.266c-.015,3.081-.037,6.163-.045,9.246a.53.53,0,0,1-.573.6,4.177,4.177,0,0,1-2.38-.452,2.164,2.164,0,0,1-1.261-2.005q0-3.154-.1-6.306a4.159,4.159,0,0,0-2.529-3.844,4.065,4.065,0,0,0-4.478.482,3.955,3.955,0,0,0-1.692,3.135q-.078,3.284-.08,6.572a2.025,2.025,0,0,1-.85,1.694,3.978,3.978,0,0,1-2.882.714c-.45-.039-.508-.357-.511-.729,0-1.534-.028-3.065-.048-4.6Z" transform="translate(-147.738 -361.929)"/><path d="M272.8,388.815c-.011-1.423,0-2.851-.054-4.275a.792.792,0,0,1,.664-.911,3.383,3.383,0,0,1,3.805,1.246c.8-.281,1.588-.623,2.408-.826a8.653,8.653,0,0,1,10.635,7.063,1.862,1.862,0,0,1,.032.266c-.015,3.081-.037,6.163-.043,9.246a.532.532,0,0,1-.575.6,4.18,4.18,0,0,1-2.38-.452,2.164,2.164,0,0,1-1.261-2.005q0-3.154-.1-6.306a4.159,4.159,0,0,0-2.529-3.844,4.062,4.062,0,0,0-4.476.482,3.951,3.951,0,0,0-1.694,3.135q-.078,3.284-.08,6.572a2.027,2.027,0,0,1-.848,1.694,3.984,3.984,0,0,1-2.884.714c-.448-.039-.508-.357-.511-.729,0-1.534-.028-3.065-.045-4.6Z" transform="translate(-217.185 -361.934)"/><path d="M461.881,388.315c-1.222.2-1.923-.649-2.765-1.209a4.381,4.381,0,0,0-4.93,0,4.548,4.548,0,0,0,1.449,8.24,23.664,23.664,0,0,0,3.306.151c.976.022,1.947,0,2.895,0,.054.087.089.117.089.145a6.161,6.161,0,0,1-1.685,3.814,1.265,1.265,0,0,1-.8.376,14.668,14.668,0,0,1-5.356-.305,9,9,0,0,1-6.462-7.381,1.837,1.837,0,0,0-.11-.292v-2.025c.069-.27.147-.539.206-.813a9.272,9.272,0,0,1,15.016-5.047,13.852,13.852,0,0,1,1.049,1.116C464.181,387.053,463.313,388.146,461.881,388.315Z" transform="translate(-354.145 -360.613)"/><path d="M377.159,392.506a2.962,2.962,0,0,1-2.358.6q-4.705.015-9.408.05c-.216,0-.446.026-.779.048a4.511,4.511,0,0,0,3.712,2.163c1.711.045,3.422.035,5.131.056.593,0,.731.106.528.649a21,21,0,0,1-1.408,3.1,1.7,1.7,0,0,1-1.19.694,14,14,0,0,1-5.865-.433,9.281,9.281,0,0,1-5.149-4.418l-.329-.6a11.66,11.66,0,0,1-.4-6.047c1.594-4.078,4.441-6.49,8.859-6.538s7.3,2.256,8.984,6.31A7.63,7.63,0,0,1,377.159,392.506Zm-4.571-3.987a4.815,4.815,0,0,0-4.143-2.215,4.561,4.561,0,0,0-3.762,2.215Z" transform="translate(-285.116 -360.653)"/><path d="M527.79,364.928c.013-.29.03-.476.03-.664.015-2.083.045-4.169.024-6.254a.683.683,0,0,1,.649-.777,3.689,3.689,0,0,1,3.6,1.594,1.684,1.684,0,0,1,.177.759c.037,1.372.048,2.743.065,4.11v.649h5.908a2.481,2.481,0,0,1,0,.686c-.448,1.082-.865,2.163-1.419,3.2a1.735,1.735,0,0,1-1.612.785h-2.76c-.327,3.029.1,5.482,3.113,6.609a10.188,10.188,0,0,0,1.986.366,1.887,1.887,0,0,1,1.635,1.346c.253.787.482,1.562.679,2.356s.1.993-.742.95a29.392,29.392,0,0,1-4.022-.413,8.7,8.7,0,0,1-6.789-5.841,9.6,9.6,0,0,1-.476-3.418c-.013-.837,0-1.672,0-2.577Z" transform="translate(-417.058 -341.337)"/><path d="M15.93,297.771c.026-.515.054-.848.056-1.183.026-3.717.08-7.435.043-11.154a1.222,1.222,0,0,1,1.17-1.387,6.576,6.576,0,0,1,6.425,2.845,2.979,2.979,0,0,1,.324,1.354c.063,2.447.082,4.893.115,7.34v1.155H34.6a3.745,3.745,0,0,1-.017,1.222c-.8,1.923-1.551,3.879-2.531,5.709a3.1,3.1,0,0,1-2.877,1.4H24.252c0,9.566.177,16.009,5.551,18.025a17.9,17.9,0,0,0,3.546.649,3.352,3.352,0,0,1,2.912,2.4c.448,1.406.865,2.786,1.214,4.2s.177,1.772-1.322,1.7a53.072,53.072,0,0,1-7.176-.74c-6-1.129-9.93-4.792-12.115-10.425a17.386,17.386,0,0,1-.848-6.1c-.024-1.491,0-9.22,0-10.834Z" transform="translate(-15.93 -283.95)"/><path class="a" d="M124.223,404.41a6.525,6.525,0,0,0-1.043,1.674c.394.048.8.076,1.227.084Q124.283,405.265,124.223,404.41Z" transform="translate(-99.978 -378.351)"/><path class="a" d="M138.972,408.86a17.1,17.1,0,0,1-2.957,1.015,16.854,16.854,0,0,1-3.325.476c.115.664.257,1.343.433,2.042.154.623.318,1.235.5,1.832a16.259,16.259,0,0,0,2.97-.446,16.055,16.055,0,0,0,3.342-1.211c-.1-.573-.216-1.16-.363-1.75A18.441,18.441,0,0,0,138.972,408.86Z" transform="translate(-107.431 -381.838)"/><path class="a" d="M123.1,417.638q-.275-1.129-.456-2.2a12.877,12.877,0,0,1-1.586-.11,6.473,6.473,0,0,0-.089,3.429q.039.16.084.312a11.2,11.2,0,0,0,2.5.253Q123.308,418.488,123.1,417.638Z" transform="translate(-98.094 -386.908)"/><path class="a" d="M123.38,436.2a6.5,6.5,0,0,0,3.6,3.418,33.4,33.4,0,0,1-1.177-3.245A12.444,12.444,0,0,1,123.38,436.2Z" transform="translate(-100.135 -403.263)"/><path class="a" d="M140.914,430.515a16.968,16.968,0,0,1-2.914.459,33.038,33.038,0,0,0,1.335,3.548,6.505,6.505,0,0,0,5.253-1.056,38.677,38.677,0,0,0-.368-4.125,16.785,16.785,0,0,1-3.306,1.175Z" transform="translate(-111.592 -397.887)"/><path class="a" d="M172.116,419.9a10.935,10.935,0,0,1-2.356,1.7,37.207,37.207,0,0,1,.387,3.894,6.5,6.5,0,0,0,1.969-5.594Z" transform="translate(-136.482 -390.49)"/><path class="a" d="M134.634,397.47a16.323,16.323,0,0,0,2.873-.991c-.359-.9-.759-1.731-1.162-2.5a6.5,6.5,0,0,0-5.2,1.514,21.994,21.994,0,0,0,.216,2.429A16.2,16.2,0,0,0,134.634,397.47Z" transform="translate(-106.216 -370.119)"/><path class="a" d="M161.578,396.323a6.517,6.517,0,0,0-2.259-1.183c.316.63.623,1.3.906,2A12.025,12.025,0,0,0,161.578,396.323Z" transform="translate(-128.3 -371.086)"/><path class="a" d="M165.33,405.9c.13.528.238,1.049.333,1.566a9.492,9.492,0,0,0,2.306-1.806,6.49,6.49,0,0,0-1.646-2.856,12.8,12.8,0,0,1-1.633.993A19.856,19.856,0,0,1,165.33,405.9Z" transform="translate(-132.508 -377.089)"/></svg>