<svg xmlns="http://www.w3.org/2000/svg" width="366.241" height="143.342" viewBox="0 0 366.241 143.342"><defs><style>.a{fill:#fff;}.b{fill:#76be57;}</style></defs><g transform="translate(0 -0.001)"><g transform="translate(0 0)"><path class="a" d="M130.261,428.344a22.171,22.171,0,1,1,15.7-37.811c1.541-2.269,1.721-5.519,0-9.587a51.167,51.167,0,0,0-4.461-3.107c-21.507-11.759-48.236,4-48.352,28.5,0,.993-.077,1.986-.122,2.972l1.489,7.047a5.94,5.94,0,0,1,.593.928c5.061,12.572,14.557,19.341,27.818,20.875a33.273,33.273,0,0,0,18.8-2.862,4.513,4.513,0,0,0,2.508-1.9,22.062,22.062,0,0,0,3.223-13.126A22.132,22.132,0,0,1,130.261,428.344Z" transform="translate(-43.324 -315.897)"/><path class="a" d="M184.3,399.414c0-4.242,0-8.5-.168-12.739a2.37,2.37,0,0,1,1.986-2.714,10.089,10.089,0,0,1,11.359,3.713c2.392-.838,4.732-1.857,7.169-2.463a25.788,25.788,0,0,1,31.7,21.049,5.557,5.557,0,0,1,.1.793c-.045,9.18-.11,18.367-.135,27.554a1.58,1.58,0,0,1-1.708,1.8,12.448,12.448,0,0,1-7.092-1.347,6.45,6.45,0,0,1-3.759-5.976q0-9.4-.284-18.793a12.394,12.394,0,0,0-7.536-11.456,12.115,12.115,0,0,0-13.345,1.438,11.787,11.787,0,0,0-5.042,9.341q-.232,9.787-.239,19.586a6.034,6.034,0,0,1-2.534,5.048,11.856,11.856,0,0,1-8.587,2.127c-1.341-.116-1.515-1.064-1.521-2.172,0-4.571-.084-9.135-.142-13.7Z" transform="translate(-75.691 -319.305)"/><path class="a" d="M272.908,399.416c-.032-4.242,0-8.5-.161-12.739a2.36,2.36,0,0,1,1.979-2.714,10.083,10.083,0,0,1,11.34,3.714c2.4-.838,4.732-1.857,7.175-2.463a25.788,25.788,0,0,1,31.693,21.049,5.54,5.54,0,0,1,.1.793c-.045,9.18-.11,18.367-.129,27.554a1.584,1.584,0,0,1-1.715,1.8,12.455,12.455,0,0,1-7.091-1.347,6.45,6.45,0,0,1-3.759-5.976q0-9.4-.284-18.793a12.394,12.394,0,0,0-7.536-11.456,12.1,12.1,0,0,0-13.339,1.438,11.776,11.776,0,0,0-5.048,9.342q-.232,9.786-.238,19.586a6.041,6.041,0,0,1-2.527,5.048,11.873,11.873,0,0,1-8.594,2.127c-1.335-.116-1.515-1.064-1.521-2.173,0-4.571-.084-9.135-.135-13.7Z" transform="translate(-107.178 -319.307)"/><path class="a" d="M490.337,401.261c-3.643.587-5.731-1.934-8.239-3.6a13.055,13.055,0,0,0-14.693,0c-4.964,3.417-6.84,8.233-5.873,14.119.806,4.919,5.228,9.632,10.193,10.438a70.517,70.517,0,0,0,9.851.451c2.908.064,5.8,0,8.626,0,.161.258.264.348.264.432a18.361,18.361,0,0,1-5.022,11.366,3.772,3.772,0,0,1-2.385,1.122c-5.351.219-10.773.832-15.963-.909-10.644-3.572-17.278-10.779-19.257-22a5.466,5.466,0,0,0-.329-.87v-6.034c.206-.806.438-1.605.613-2.424,4.377-20.127,29.1-28.45,44.748-15.041A41.269,41.269,0,0,1,496,391.636C497.19,397.5,494.6,400.758,490.337,401.261Z" transform="translate(-169.274 -318.708)"/><path class="a" d="M412.273,413.651c-2,2.018-4.513,1.779-7.027,1.786q-14.022.045-28.038.148c-.645,0-1.328.077-2.321.142,2.863,4.062,6.382,6.331,11.063,6.447,5.1.135,10.2.1,15.292.168,1.766,0,2.179.316,1.573,1.934a62.6,62.6,0,0,1-4.2,9.238,5.068,5.068,0,0,1-3.546,2.069c-5.867.445-11.778.741-17.478-1.289a27.657,27.657,0,0,1-15.344-13.165l-.98-1.8a34.746,34.746,0,0,1-1.206-18.019c4.751-12.152,13.235-19.341,26.4-19.482s21.745,6.724,26.774,18.806C414.311,404.754,413.788,409.125,412.273,413.651Zm-13.622-11.882c-3.262-4.294-7.156-6.789-12.346-6.6-4.751.168-8.381,2.437-11.211,6.6Z" transform="translate(-137.977 -318.726)"/><path class="a" d="M527.79,380.272c.039-.864.09-1.418.09-1.979.045-6.208.135-12.423.071-18.638a2.037,2.037,0,0,1,1.934-2.314c3.739-.793,8.845,1.412,10.734,4.751a5.018,5.018,0,0,1,.529,2.263c.109,4.087.142,8.175.193,12.249v1.934h17.607a7.392,7.392,0,0,1,0,2.044c-1.334,3.224-2.579,6.447-4.229,9.535-.9,1.7-2.83,2.327-4.8,2.34h-8.226c-.974,9.026.3,16.336,9.277,19.7a30.357,30.357,0,0,0,5.918,1.089,5.624,5.624,0,0,1,4.874,4.01c.754,2.347,1.438,4.655,2.024,7.021s.3,2.959-2.211,2.83a87.584,87.584,0,0,1-11.985-1.231c-10.032-1.889-16.595-8.007-20.231-17.407-1.289-3.281-1.36-6.737-1.418-10.186-.039-2.495,0-4.983,0-7.678Z" transform="translate(-197.799 -309.969)"/><path class="a" d="M15.93,325.139c.077-1.534.161-2.527.168-3.526.077-11.076.239-22.158.129-33.24,0-2.746,1.212-3.655,3.488-4.132,6.666-1.418,15.776,2.514,19.147,8.478a8.877,8.877,0,0,1,.967,4.036c.187,7.291.245,14.583.342,21.874v3.443h31.4c0,1.47.335,2.708-.052,3.643-2.385,5.731-4.622,11.559-7.543,17.013-1.612,3.011-5.054,4.145-8.574,4.165H40.731c0,28.508.529,47.707,16.543,53.716,3.3,1.231,7.021,1.393,10.566,1.934,4.332.677,7.343,2.959,8.678,7.15s2.579,8.3,3.617,12.513.529,5.28-3.939,5.061a158.156,158.156,0,0,1-21.384-2.2c-17.89-3.365-29.591-14.28-36.1-31.068-2.256-5.847-2.43-12.011-2.527-18.167-.071-4.442,0-27.477,0-32.286Z" transform="translate(-15.93 -283.95)"/></g><g transform="translate(67.593 70.888)"><path class="b" d="M126.287,404.41a19.445,19.445,0,0,0-3.107,4.99c1.173.142,2.4.226,3.655.251Q126.468,406.956,126.287,404.41Z" transform="translate(-121.63 -397.639)"/><path class="b" d="M151.412,408.86a50.971,50.971,0,0,1-8.813,3.024,50.227,50.227,0,0,1-9.909,1.418c.342,1.979.767,4,1.289,6.086.458,1.857.948,3.681,1.476,5.461a48.449,48.449,0,0,0,8.852-1.328,47.839,47.839,0,0,0,9.96-3.61c-.3-1.708-.645-3.456-1.083-5.215A54.949,54.949,0,0,0,151.412,408.86Z" transform="translate(-125.009 -399.22)"/><path class="b" d="M127.69,422.209q-.819-3.365-1.36-6.55a38.384,38.384,0,0,1-4.726-.329,19.289,19.289,0,0,0-.264,10.218q.116.477.251.928a33.375,33.375,0,0,0,7.446.754Q128.321,424.742,127.69,422.209Z" transform="translate(-120.776 -401.518)"/><path class="b" d="M123.38,436.2a19.38,19.38,0,0,0,10.715,10.186,99.545,99.545,0,0,1-3.507-9.67A37.086,37.086,0,0,1,123.38,436.2Z" transform="translate(-121.701 -408.934)"/><path class="b" d="M146.684,432.841A50.546,50.546,0,0,1,138,434.207a98.461,98.461,0,0,0,3.978,10.573,19.386,19.386,0,0,0,15.653-3.146,115.269,115.269,0,0,0-1.1-12.294A50.025,50.025,0,0,1,146.684,432.841Z" transform="translate(-126.896 -406.496)"/><path class="b" d="M176.781,419.9a32.59,32.59,0,0,1-7.021,5.067,110.873,110.873,0,0,1,1.154,11.6A19.38,19.38,0,0,0,176.781,419.9Z" transform="translate(-138.18 -403.142)"/><path class="b" d="M141.552,404.527a48.645,48.645,0,0,0,8.561-2.953c-1.07-2.669-2.263-5.157-3.462-7.459a19.379,19.379,0,0,0-15.511,4.513,65.546,65.546,0,0,0,.645,7.24A48.283,48.283,0,0,0,141.552,404.527Z" transform="translate(-124.458 -393.907)"/><path class="b" d="M166.051,398.666a19.42,19.42,0,0,0-6.731-3.526c.941,1.876,1.857,3.868,2.7,5.951A35.842,35.842,0,0,0,166.051,398.666Z" transform="translate(-134.471 -394.345)"/><path class="b" d="M166.6,412.026c.387,1.573.709,3.127.993,4.667a28.286,28.286,0,0,0,6.872-5.383,19.341,19.341,0,0,0-4.906-8.51,38.141,38.141,0,0,1-4.867,2.959A59.176,59.176,0,0,1,166.6,412.026Z" transform="translate(-136.379 -397.066)"/></g></g></svg>